/* XPM */
static char *_640629034897[] = {
/* columns rows colors chars-per-pixel */
"40 40 62 1 ",
"  c #00060F",
". c #000C14",
"X c #08151D",
"o c #111E25",
"O c #152129",
"+ c #152229",
"@ c #162229",
"# c #1D2930",
"$ c #232F36",
"% c #253138",
"& c #28343A",
"* c #29343B",
"= c #303B41",
"- c #313B42",
"; c #333E44",
": c #364147",
"> c #374248",
", c #424C52",
"< c #465056",
"1 c #4A5459",
"2 c #586167",
"3 c #5A6368",
"4 c #5E676C",
"5 c #60686E",
"6 c #666E73",
"7 c #6B7277",
"8 c #6C7378",
"9 c #6F777B",
"0 c #83898D",
"q c #848B8F",
"w c #858B8F",
"e c #868C90",
"r c #949A9D",
"t c #9A9FA3",
"y c #9AA0A3",
"u c #9BA0A3",
"i c #9CA1A5",
"p c #A4A8AB",
"a c #A4A9AC",
"s c #A9AEB1",
"d c #AFB4B6",
"f c #B0B4B6",
"g c #B7BABD",
"h c #C3C6C8",
"j c #C6C9CB",
"k c #CED1D2",
"l c #CFD1D3",
"z c #D1D3D5",
"x c #D9DBDC",
"c c #D9DBDD",
"v c #DCDEDF",
"b c #DDDFE0",
"n c #E6E8E9",
"m c #E7E8E9",
"M c #F1F2F2",
"N c #F3F3F4",
"B c #F7F7F8",
"V c #F9F9F9",
"C c #F9FAFA",
"Z c #FEFEFE",
"A c white",
"S c None",
/* pixels */
"SSSSSSSSSSSSSSSSSSSSSSSSSSSSSSSSSSSSSSSS",
"SSSSSSSSSSSSSSSSSSSSSSSSSSSSSSSSSSSSSSSS",
"SSSSSSSSSSSSSSSSSSSSSSSSSSSSSSSSSSSSSSSS",
"SSSSSSSSSSSSSSSSSSSSSSSSSSSSSSSSSSSSSSSS",
"SSSSSSSSSSSSSSSSSSSSSSSSSSSSSSSSSSSSSSSS",
"SSSSSSSSSSSSSSSSSSSSSSSSSSSSSSSSSSSSSSSS",
"SSSSSSSSSSSSSSSSSSSSSSSSSSSSSSSSSSSSSSSS",
"SSSSSSSSSSSSSSSSSSOOSSSSSSSSSSSSSSSSSSSS",
"SSSSSSSSSSSSSSSSSX9e*SSSSSSSSSSSSSSSSSSS",
"SSSSSSSSSSSSSSSS#,gb5%SSSSSSSSSSSSSSSSSS",
"SSSSSSSSSSSSSSS.2jNVc0oSSSSSSSSSSSSSSSSS",
"SSSSSSSSSSSSSS#2pAAAAj8;SSSSSSSSSSSSSSSS",
"SSSSSSSSSSSSSX,jAAAAAAn8oSSSSSSSSSSSSSSS",
"SSSSSSSSSSSSX6fMAAAAAAAj0%SSSSSSSSSSSSSS",
"SSSSSSSSSSS#,fAAAAAAAAAAx4%SSSSSSSSSSSSS",
"SSSSSSSSSS.2jMAAAAAAAAAAVx0oSSSSSSSSSSSS",
"SSSSSSSSS#2pAAAAAAAAAAAAAAj7;SSSSSSSSSSS",
"SSSSSSSSX,hZAAAAAAAAAAAAAAAn7oSSSSSSSSSS",
"SSSSSSSO7dMAAAAAAAAAAAAAAAAAjw=SSSSSSSSS",
"SSSSSSS@uAAAAAAAAAAAAAAAAAAAAl> SSSSSSSS",
"SSSSSSSOuAAAAAAAAAAAAAAAAAAAAl: SSSSSSSS",
"SSSSSSSOuAAAAAAAAAAAAAAAAAAAAz> SSSSSSSS",
"SSSSSSSOrBAAAAAAAAAAAAAAAAAAAh: SSSSSSSS",
"SSSSSSSS1wnAAAAAAAAAAAAAAAAAp3*SSSSSSSSS",
"SSSSSSSSS=snAAAAAAAAAAAAAAMj2.SSSSSSSSSS",
"SSSSSSSSSS=eBAAAAAAAAAAAAAf,#SSSSSSSSSSS",
"SSSSSSSSSSS<tbAAAAAAAAAAMd6XSSSSSSSSSSSS",
"SSSSSSSSSSSS$tBAAAAAAAAAj,XSSSSSSSSSSSSS",
"SSSSSSSSSSSSS<0nAAAAAAAp2#SSSSSSSSSSSSSS",
"SSSSSSSSSSSSSS;snAAAAMj2.SSSSSSSSSSSSSSS",
"SSSSSSSSSSSSSSS;0BAAAd,#SSSSSSSSSSSSSSSS",
"SSSSSSSSSSSSSSSS1rutu7XSSSSSSSSSSSSSSSSS",
"SSSSSSSSSSSSSSSSS@@@@OSSSSSSSSSSSSSSSSSS",
"SSSSSSSSSSSSSSSSSSSSSSSSSSSSSSSSSSSSSSSS",
"SSSSSSSSSSSSSSSSSSSSSSSSSSSSSSSSSSSSSSSS",
"SSSSSSSSSSSSSSSSSSSSSSSSSSSSSSSSSSSSSSSS",
"SSSSSSSSSSSSSSSSSSSSSSSSSSSSSSSSSSSSSSSS",
"SSSSSSSSSSSSSSSSSSSSSSSSSSSSSSSSSSSSSSSS",
"SSSSSSSSSSSSSSSSSSSSSSSSSSSSSSSSSSSSSSSS",
"SSSSSSSSSSSSSSSSSSSSSSSSSSSSSSSSSSSSSSSS"
};
