/* XPM */
static char *_640629054313[] = {
/* columns rows colors chars-per-pixel */
"40 40 242 2 ",
"   c #00060F",
".  c #04121A",
"X  c #05131B",
"o  c #06141B",
"O  c #0A141F",
"+  c #0D1520",
"@  c #0F1922",
"#  c #111423",
"$  c #121B24",
"%  c #171827",
"&  c #101C24",
"*  c #131C25",
"=  c #141E27",
"-  c #141F27",
";  c #151928",
":  c #1C182A",
">  c #1C192A",
",  c #1B1B2D",
"<  c #1D1C2F",
"1  c #1D1D2F",
"2  c #231C34",
"3  c #281B32",
"4  c #281C32",
"5  c #371B3B",
"6  c #371F3C",
"7  c #391C3C",
"8  c #391C3D",
"9  c #3A1D3D",
"0  c #3B1E3E",
"q  c #3B1F3E",
"w  c #3D1E3F",
"e  c #3C1F3F",
"r  c #3D1F3F",
"t  c #21242E",
"y  c #21252F",
"u  c #262036",
"i  c #202831",
"p  c #222B33",
"a  c #252C34",
"s  c #242D34",
"d  c #2A2A35",
"f  c #2B2B36",
"g  c #2E2D38",
"h  c #3D203F",
"j  c #342B3B",
"k  c #35293C",
"l  c #2E343C",
"z  c #2F363D",
"x  c #34313C",
"c  c #3D2040",
"v  c #3E2040",
"b  c #3E2140",
"n  c #3F2141",
"m  c #3F2241",
"M  c #3A3340",
"N  c #323940",
"B  c #313C43",
"V  c #353C42",
"C  c #343F46",
"Z  c #402141",
"A  c #402142",
"S  c #422443",
"D  c #422444",
"F  c #442544",
"G  c #442545",
"H  c #452646",
"J  c #4B2A4A",
"K  c #4D2C4C",
"L  c #473B49",
"P  c #483D4A",
"I  c #52304F",
"U  c #53314F",
"Y  c #442C50",
"T  c #462C52",
"R  c #4E3059",
"E  c #543150",
"W  c #573353",
"Q  c #593554",
"!  c #513D5A",
"~  c #632B53",
"^  c #672D55",
"/  c #662E55",
"(  c #683057",
")  c #6B375C",
"_  c #603B59",
"`  c #573361",
"'  c #6F3D75",
"]  c #743E79",
"[  c #793B7E",
"{  c #7A3D7F",
"}  c #354046",
"|  c #374248",
" . c #384249",
".. c #384349",
"X. c #41434C",
"o. c #4F414F",
"O. c #564654",
"+. c #564655",
"@. c #524F5A",
"#. c #485358",
"$. c #49565B",
"%. c #53505B",
"&. c #604A5B",
"*. c #5E5964",
"=. c #6A4360",
"-. c #6C4562",
";. c #704063",
":. c #714965",
">. c #714A68",
",. c #774D6A",
"<. c #794D6B",
"1. c #784E6A",
"2. c #6D5464",
"3. c #6D5565",
"4. c #615D67",
"5. c #625E67",
"6. c #7A407F",
"7. c #78507C",
"8. c #706674",
"9. c #7A737B",
"0. c #8D3F7E",
"q. c #9A3E73",
"w. c #8F427F",
"e. c #9C4276",
"r. c #9D4276",
"t. c #9D4477",
"y. c #8D5777",
"u. c #815872",
"i. c #815D72",
"p. c #825D73",
"a. c #875875",
"s. c #885976",
"d. c #806373",
"f. c #80607A",
"g. c #8C617A",
"h. c #8A6779",
"j. c #8B617C",
"k. c #866D7C",
"l. c #7B3E80",
"z. c #7C3F81",
"x. c #7D4081",
"c. c #7D4181",
"v. c #7C4381",
"b. c #7D4182",
"n. c #7E4082",
"m. c #7E4182",
"M. c #7E4282",
"N. c #7E4283",
"B. c #7E4383",
"V. c #7F4383",
"C. c #804384",
"Z. c #814785",
"A. c #824486",
"S. c #824786",
"D. c #8F4380",
"F. c #834886",
"G. c #834986",
"H. c #914581",
"J. c #944C86",
"K. c #8A508C",
"L. c #8B518C",
"P. c #8D568F",
"I. c #8E578F",
"U. c #99558D",
"Y. c #905791",
"T. c #925992",
"R. c #935C93",
"E. c #9B5E93",
"W. c #A55382",
"Q. c #876F85",
"!. c #966580",
"~. c #956980",
"^. c #966A81",
"/. c #986C82",
"(. c #8A7D88",
"). c #937389",
"_. c #976396",
"`. c #9D6D9A",
"'. c #9E6F9C",
"]. c #A7768E",
"[. c #A8778E",
"{. c #A9768F",
"}. c #AE6690",
"|. c #AE749E",
" X c #B87599",
".X c #B67E98",
"XX c #A575A2",
"oX c #A976A4",
"OX c #A979A4",
"+X c #A97AA4",
"@X c #AD7AA8",
"#X c #82858A",
"$X c #8F858D",
"%X c #84898D",
"&X c #90858E",
"*X c #9B8D97",
"=X c #9E859A",
"-X c #999DA1",
";X c #9A9EA2",
":X c #A884A3",
">X c #BD85A4",
",X c #B085AF",
"<X c #B08EAA",
"1X c #B398AB",
"2X c #B499AC",
"3X c #B788B0",
"4X c #B78DB2",
"5X c #B889B1",
"6X c #B88BB2",
"7X c #AAAFB2",
"8X c #ABB0B2",
"9X c #C098B7",
"0X c #CC9EB2",
"qX c #C5A2B1",
"wX c #CFA0B4",
"eX c #CEA2B5",
"rX c #C4A8B9",
"tX c #C5A9B9",
"yX c #CBAABF",
"uX c #D4AEBF",
"iX c #CFAAC1",
"pX c #DAB6CB",
"aX c #DCBDCC",
"sX c #D3C6CB",
"dX c #D9C8D0",
"fX c #DFCAD8",
"gX c #CDD0D1",
"hX c #D2D5D7",
"jX c #D3D6D7",
"kX c #E1C1CF",
"lX c #E2C4D2",
"zX c #E5C6D3",
"xX c #E4C2D4",
"cX c #E6CEDA",
"vX c #E1DADD",
"bX c #EBD4E1",
"nX c #E9DCE2",
"mX c #F0E9ED",
"MX c #FFECF2",
"NX c #FFF4F8",
"BX c #FFFBFE",
"VX c None",
/* pixels */
"VXVXVXVXVXVXVXVXVXVXVXVXVXVXVXVXVXVXVXVXVXVXVXVXVXVXVXVXVXVXVXVXVXVXVXVXVXVXVXVX",
"VXVXVXVXVXVXVXVXVXVXVXVXVXVXVXVXVXVXVXVXVXVXVXVXVXVXVXVXVXVXVXVXVXVXVXVXVXVXVXVX",
"VXVXVXVXVXVXVXVXVXVXVXVXVXVXVXVXVXVXVXVXVXVXVXVXVXVXVXVXVXVXVXVXVXVXVXVXVXVXVXVX",
"VXVXVXVXVXVXVXVXVXVXVXVXVXVXVXVXVXVXVXVXVXVXVXVXVXVXVXVXVXVXVXVXVXVXVXVXVXVXVXVX",
"VXVXVXVXVXVXVXVXVXVXVXVXVXVXVXVXVXVXVXVXVXVXVXVXVXVXVXVXVXVXVXVXVXVXVXVXVXVXVXVX",
"VXVXVXVXVXVXVXVXVXVXVXVXVXVXVXVXVXVXVXVXVXVXVXVXVXVXVXVXVXVXVXVXVXVXVXVXVXVXVXVX",
"VXVXVXVXVXVXVXVXVXVXVXVXVXVXVXVXVXVXVXVXVXVXVXVXVXVXVXVXVXVXVXVXVXVXVXVXVXVXVXVX",
"VXVXVXVXVXVXVXVXVXVXVXVXVXVXVXVXVXVXVXVXVXVXVXVXVXVXVXVXVXVXVXVXVXVXVXVXVXVXVXVX",
"VXVXVXVXVXVXVXVXVXVXVXVXVXVXVXVXVXVXVXVXVXVXVXVXVXVXVXVXVXVXVXVXVXVXVXVXVXVXVXVX",
"VXVXVXVXVXVXVXVXVXVXVXVXVXVXVXVXVXVX, 1 VXVXVXVXVXVXVXVXVXVXVXVXVXVXVXVXVXVXVXVX",
"VXVXVXVXVXVXVXVXVXVXVXVXVXVXVXVXVX+ Y ` 1 VXVXVXVXVXVXVXVXVXVXVXVXVXVXVXVXVXVXVX",
"VXVXVXVXVXVXVXVXVXVXVXVXVXVXVXVXV *.7.] Y u VXVXVXVXVXVXVXVXVXVXVXVXVXVXVXVXVXVX",
"VXVXVXVXVXVXVXVXVXVXVXVXVXVXVX& 4.rXXXV.6.R % VXVXVXVXVXVXVXVXVXVXVXVXVXVXVXVXVX",
"VXVXVXVXVXVXVXVXVXVXVXVXVXVXs 9.=X+XT.V.A.' R 2 VXVXVXVXVXVXVXVXVXVXVXVXVXVXVXVX",
"VXVXVXVXVXVXVXVXVXVXVXVXVXs %.2X3XA.z.V.V.A.v.! z VXVXVXVXVXVXVXVXVXVXVXVXVXVXVX",
"VXVXVXVXVXVXVXVXVXVXVXVX& 9.2X'.L.V.V.V.C.z.F.:X*Xz VXVXVXVXVXVXVXVXVXVXVXVXVXVX",
"VXVXVXVXVXVXVXVXVXVXVXz 4.=X3XK.l.V.V.V.V.l.A.@X<X8.X.VXVXVXVXVXVXVXVXVXVXVXVXVX",
"VXVXVXVXVXVXVXVXVXVX& 4.rX+XA.V.V.V.V.V.V.V.V.V._.iX&Xp VXVXVXVXVXVXVXVXVXVXVXVX",
"VXVXVXVXVXVXVXVXVXs 9.=X+XT.l.V.V.V.V.V.V.V.V.l.R.pXdX;X#.VXVXVXVXVXVXVXVXVXVXVX",
"VXVXVXVXVXVXVXVXs %.2X3XA.{ l.V.V.V.V.V.V.V.V.v.P.2XbXmX%XB VXVXVXVXVXVXVXVXVXVX",
"VXVXVXVXVXVXVX- 9.2X`.L.V.V.V.V.V.V.V.V.V.V.V.V.V.P.4XcXnX8X} VXVXVXVXVXVXVXVXVX",
"VXVXVXVXVXVXVX- &XxX6XE.J.oX,XU.w.H.H.H.H.D.H.H.D.0.|.xXBXgX..  VXVXVXVXVXVXVXVX",
"VXVXVXVXVXVXVX- (.zXaX>XW.iXfX}.q.t.t.t.t.t.t.t.t.e. XxXNXgX|   VXVXVXVXVXVXVXVX",
"VXVXVXVXVXVXVX& k.0X).>.) f.Q.;./ / ( ( ( ( ( ( / ~ y.eXMXjX..  VXVXVXVXVXVXVXVX",
"VXVXVXVXVXVXVX$ 2.g.-.K h w w w v v v v v v v v S I g.wXzX8X} VXVXVXVXVXVXVXVXVX",
"VXVXVXVXVXVXVXVXy L /.s.A 0 w m m m v m m v m 8 W g.uXvX#XV VXVXVXVXVXVXVXVXVXVX",
"VXVXVXVXVXVXVXVXVXy 2.i.<.U 0 h v m m v v m m 5 Q >XqX-X$.VXVXVXVXVXVXVXVXVXVXVX",
"VXVXVXVXVXVXVXVXVXVX& +.[.,.G m m v A v m v m m _ {.8.t VXVXVXVXVXVXVXVXVXVXVXVX",
"VXVXVXVXVXVXVXVXVXVXVXg +.i.s.K 8 A m v v 0 G <.g.&.M VXVXVXVXVXVXVXVXVXVXVXVXVX",
"VXVXVXVXVXVXVXVXVXVXVXVX@ 2./.-.K v v A m 0 G u.h.f VXVXVXVXVXVXVXVXVXVXVXVXVXVX",
"VXVXVXVXVXVXVXVXVXVXVXVXVXy P /.s.F 0 m m m m k f VXVXVXVXVXVXVXVXVXVXVXVXVXVXVX",
"VXVXVXVXVXVXVXVXVXVXVXVXVXVXy 2.i.<.W A m h 4 # VXVXVXVXVXVXVXVXVXVXVXVXVXVXVXVX",
"VXVXVXVXVXVXVXVXVXVXVXVXVXVXVX& +.].:.0 0 4 + VXVXVXVXVXVXVXVXVXVXVXVXVXVXVXVXVX",
"VXVXVXVXVXVXVXVXVXVXVXVXVXVXVXVXx o.j : > % VXVXVXVXVXVXVXVXVXVXVXVXVXVXVXVXVXVX",
"VXVXVXVXVXVXVXVXVXVXVXVXVXVXVXVXVXX X o o VXVXVXVXVXVXVXVXVXVXVXVXVXVXVXVXVXVXVX",
"VXVXVXVXVXVXVXVXVXVXVXVXVXVXVXVXVXVXVXVXVXVXVXVXVXVXVXVXVXVXVXVXVXVXVXVXVXVXVXVX",
"VXVXVXVXVXVXVXVXVXVXVXVXVXVXVXVXVXVXVXVXVXVXVXVXVXVXVXVXVXVXVXVXVXVXVXVXVXVXVXVX",
"VXVXVXVXVXVXVXVXVXVXVXVXVXVXVXVXVXVXVXVXVXVXVXVXVXVXVXVXVXVXVXVXVXVXVXVXVXVXVXVX",
"VXVXVXVXVXVXVXVXVXVXVXVXVXVXVXVXVXVXVXVXVXVXVXVXVXVXVXVXVXVXVXVXVXVXVXVXVXVXVXVX",
"VXVXVXVXVXVXVXVXVXVXVXVXVXVXVXVXVXVXVXVXVXVXVXVXVXVXVXVXVXVXVXVXVXVXVXVXVXVXVXVX"
};
