/* XPM */
static char *_640629044697[] = {
/* columns rows colors chars-per-pixel */
"40 40 158 2 ",
"   c #00060F",
".  c #000D15",
"X  c #001017",
"o  c #04131A",
"O  c #09151D",
"+  c #0F1721",
"@  c #121623",
"#  c #131E26",
"$  c #181B27",
"%  c #1A1728",
"&  c #1A1A2B",
"*  c #241E35",
"=  c #2C1D34",
"-  c #311B37",
";  c #331C39",
":  c #3A1D3D",
">  c #321335",
",  c #1A212B",
"<  c #1E2A31",
"1  c #21262F",
"2  c #202C33",
"3  c #292934",
"4  c #2E2C38",
"5  c #3B223F",
"6  c #2B343B",
"7  c #35313D",
"8  c #3E1F41",
"9  c #3F2141",
"0  c #303B41",
"q  c #3D3F49",
"w  c #412242",
"e  c #452847",
"r  c #4E2348",
"t  c #4C2C4B",
"y  c #542A4D",
"u  c #4B314B",
"i  c #442C50",
"p  c #5B3757",
"a  c #53335C",
"s  c #5D3B59",
"d  c #533754",
"f  c #633D5B",
"g  c #6D3F60",
"h  c #733E79",
"j  c #7A3B7E",
"k  c #354147",
"l  c #374248",
"z  c #3B494D",
"x  c #45474F",
"c  c #4C404D",
"v  c #45494F",
"b  c #414A51",
"n  c #4C4E55",
"m  c #584655",
"M  c #5D435E",
"N  c #55555D",
"B  c #6C4562",
"V  c #664964",
"C  c #615F66",
"Z  c #6E5565",
"A  c #725568",
"S  c #7A566D",
"D  c #596167",
"F  c #5B6569",
"G  c #706674",
"H  c #736975",
"J  c #6A7276",
"K  c #6D757A",
"L  c #8E396B",
"P  c #913E6E",
"I  c #953F7B",
"U  c #99457F",
"Y  c #895A77",
"T  c #9B517C",
"R  c #826777",
"E  c #8F677D",
"W  c #91627D",
"Q  c #7C3E81",
"!  c #7F4383",
"~  c #7E6B80",
"^  c #824484",
"/  c #854588",
"(  c #874C89",
")  c #844986",
"_  c #9A4680",
"`  c #8B538E",
"'  c #895D8A",
"]  c #925B92",
"[  c #A25786",
"{  c #8A608A",
"}  c #976D82",
"|  c #9B6C84",
" . c #897D87",
".. c #8D7D8D",
"X. c #8B7487",
"o. c #966195",
"O. c #97659A",
"+. c #996396",
"@. c #AA6092",
"#. c #A57990",
"$. c #AF7B9A",
"%. c #B17E96",
"&. c #B17F9D",
"*. c #A371A3",
"=. c #AB78A7",
"-. c #B277A3",
";. c #858B8F",
":. c #90868F",
">. c #9A8B96",
",. c #968493",
"<. c #8A9295",
"1. c #96949E",
"2. c #BC839D",
"3. c #A980A4",
"4. c #B18FAA",
"5. c #BA88AD",
"6. c #B387AC",
"7. c #A19EA6",
"8. c #A494A4",
"9. c #B697A9",
"0. c #B498B7",
"q. c #B792B3",
"w. c #A3A5AC",
"e. c #B1B4B5",
"r. c #CF99AF",
"t. c #C49CBB",
"y. c #D19BB1",
"u. c #C7ABBA",
"i. c #CCAABF",
"p. c #C6A4BB",
"a. c #D5A7BC",
"s. c #C0B6BC",
"d. c #BDBBC1",
"f. c #CFB6C4",
"g. c #CBB1CC",
"h. c #D6B6C4",
"j. c #DCB6CA",
"k. c #D7B8CC",
"l. c #DABACC",
"z. c #E2BDCC",
"x. c #C2C3C7",
"c. c #C4C7C9",
"v. c #C8CCCD",
"b. c #D3C5CF",
"n. c #CFD1D3",
"m. c #D2D2D5",
"M. c #E1C1CE",
"N. c #E3C4D1",
"B. c #E7CBD6",
"V. c #E9CDD8",
"C. c #ECD7DF",
"Z. c #E7D6E5",
"A. c #E8DCE1",
"S. c #F0DFE6",
"D. c #E4E2E4",
"F. c #F9E7ED",
"G. c #FEFCFD",
"H. c None",
/* pixels */
"H.H.H.H.H.H.H.H.H.H.H.H.H.H.H.H.H.H.H.H.H.H.H.H.H.H.H.H.H.H.H.H.H.H.H.H.H.H.H.H.",
"H.H.H.H.H.H.H.H.H.H.H.H.H.H.H.H.H.H.H.H.H.H.H.H.H.H.H.H.H.H.H.H.H.H.H.H.H.H.H.H.",
"H.H.H.H.H.H.H.H.H.H.H.H.H.H.H.H.H.H.H.H.H.H.H.H.H.H.H.H.H.H.H.H.H.H.H.H.H.H.H.H.",
"H.H.H.H.H.H.H.H.H.H.H.H.H.H.H.H.H.H.H.H.H.H.H.H.H.H.H.H.H.H.H.H.H.H.H.H.H.H.H.H.",
"H.H.H.H.H.H.H.H.H.H.H.H.H.H.H.H.H.H.H.H.H.H.H.H.H.H.H.H.H.H.H.H.H.H.H.H.H.H.H.H.",
"H.H.H.H.H.H.H.H.H.H.H.H.H.H.H.H.H.H.o o H.H.H.H.H.H.H.H.H.H.H.H.H.H.H.H.H.H.H.H.",
"H.H.H.H.H.H.H.H.H.H.H.H.H.H.H.H.H.H.n N 2 H.H.H.H.H.H.H.H.H.H.H.H.H.H.H.H.H.H.H.",
"H.H.H.H.H.H.H.H.H.H.H.H.H.H.H.H.H., ..9.l O H.H.H.H.H.H.H.H.H.H.H.H.H.H.H.H.H.H.",
"H.H.H.H.H.H.H.H.H.H.H.H.H.H.H.H.* a { =.,.C O H.H.H.H.H.H.H.H.H.H.H.H.H.H.H.H.H.",
"H.H.H.H.H.H.H.H.H.H.H.H.H.H.H.& 9 ! ! ] t.>.z 2 H.H.H.H.H.H.H.H.H.H.H.H.H.H.H.H.",
"H.H.H.H.H.H.H.H.H.H.H.H.H.H.& a ! ! ! ! ] q.x.F . H.H.H.H.H.H.H.H.H.H.H.H.H.H.H.",
"H.H.H.H.H.H.H.H.H.H.H.H.H.* i h ! ! ! ! Q *.g.1.F 2 H.H.H.H.H.H.H.H.H.H.H.H.H.H.",
"H.H.H.H.H.H.H.H.H.H.H.H., a j ^ ! ! ! ! ! ! ` g.x.b O H.H.H.H.H.H.H.H.H.H.H.H.H.",
"H.H.H.H.H.H.H.H.H.H.H.v  .{ ^ ^ ! ! ! ! ! Q ! *.0.w.K O H.H.H.H.H.H.H.H.H.H.H.H.",
"H.H.H.H.H.H.H.H.H.H.6 H p.*.^ Q ! ! ! ! ^ ! ! j +.Z.e.b 2 H.H.H.H.H.H.H.H.H.H.H.",
"H.H.H.H.H.H.H.H.H.6 >.4.+.( ^ ! ! ! ! ! ! ! ! j ] k.A.c.D . H.H.H.H.H.H.H.H.H.H.",
"H.H.H.H.H.H.H.H.c G 6.*.! j ! ! ! ! ! ! Q j ^ ] 5.j.F.G.w.F 6 H.H.H.H.H.H.H.H.H.",
"H.H.H.H.H.H.H.,  .g.o.Y ^ ^ ! ! ( ( ! ! ) / ` q.N.N.S.G.G.c.k   H.H.H.H.H.H.H.H.",
"H.H.H.H.H.H.H.# :.j.@.U U U U U -.g.=.[ 5.t.t.l.V.B.S.G.G.m.l   H.H.H.H.H.H.H.H.",
"H.H.H.H.H.H.H.,  .a.T L L U P P &.b.$.[ 9.u.u.h.l.z.C.G.G.n.l   H.H.H.H.H.H.H.H.",
"H.H.H.H.H.H.H.# R 2.g r y y y y p V p y s M V #.y.r.z.G.G.m.l . H.H.H.H.H.H.H.H.",
"H.H.H.H.H.H.H.@ m S S s : : : : : ; : 8 8 ; 8 B | 2.z.G.v.;.0 H.H.H.H.H.H.H.H.H.",
"H.H.H.H.H.H.H.H.O 7 } W t w 9 9 8 9 9 9 8 9 9 9 f %.N.D.K # H.H.H.H.H.H.H.H.H.H.",
"H.H.H.H.H.H.H.H.H., c A W f 9 9 9 9 9 9 w 9 8 > s h.e.J k H.H.H.H.H.H.H.H.H.H.H.",
"H.H.H.H.H.H.H.H.H.H.X c } B : 9 9 9 9 9 w : w d ~ d.<.# H.H.H.H.H.H.H.H.H.H.H.H.",
"H.H.H.H.H.H.H.H.H.H.H.1 4 5 9 5 9 9 9 9 w : e 8.d.D 6 H.H.H.H.H.H.H.H.H.H.H.H.H.",
"H.H.H.H.H.H.H.H.H.H.H.H.X % = 5 w 9 9 8 : M ..7.<.6 H.H.H.H.H.H.H.H.H.H.H.H.H.H.",
"H.H.H.H.H.H.H.H.H.H.H.H.H.O @ 5 9 9 9 w w X.m.K # H.H.H.H.H.H.H.H.H.H.H.H.H.H.H.",
"H.H.H.H.H.H.H.H.H.H.H.H.H.H.+ $ = 9 9 y Y X.J z H.H.H.H.H.H.H.H.H.H.H.H.H.H.H.H.",
"H.H.H.H.H.H.H.H.H.H.H.H.H.H.H.O % - - u E Z O H.H.H.H.H.H.H.H.H.H.H.H.H.H.H.H.H.",
"H.H.H.H.H.H.H.H.H.H.H.H.H.H.H.H.+ + @ $ 3 3 H.H.H.H.H.H.H.H.H.H.H.H.H.H.H.H.H.H.",
"H.H.H.H.H.H.H.H.H.H.H.H.H.H.H.H.H.o o o . H.H.H.H.H.H.H.H.H.H.H.H.H.H.H.H.H.H.H.",
"H.H.H.H.H.H.H.H.H.H.H.H.H.H.H.H.H.H.H.H.H.H.H.H.H.H.H.H.H.H.H.H.H.H.H.H.H.H.H.H.",
"H.H.H.H.H.H.H.H.H.H.H.H.H.H.H.H.H.H.H.H.H.H.H.H.H.H.H.H.H.H.H.H.H.H.H.H.H.H.H.H.",
"H.H.H.H.H.H.H.H.H.H.H.H.H.H.H.H.H.H.H.H.H.H.H.H.H.H.H.H.H.H.H.H.H.H.H.H.H.H.H.H.",
"H.H.H.H.H.H.H.H.H.H.H.H.H.H.H.H.H.H.H.H.H.H.H.H.H.H.H.H.H.H.H.H.H.H.H.H.H.H.H.H.",
"H.H.H.H.H.H.H.H.H.H.H.H.H.H.H.H.H.H.H.H.H.H.H.H.H.H.H.H.H.H.H.H.H.H.H.H.H.H.H.H.",
"H.H.H.H.H.H.H.H.H.H.H.H.H.H.H.H.H.H.H.H.H.H.H.H.H.H.H.H.H.H.H.H.H.H.H.H.H.H.H.H.",
"H.H.H.H.H.H.H.H.H.H.H.H.H.H.H.H.H.H.H.H.H.H.H.H.H.H.H.H.H.H.H.H.H.H.H.H.H.H.H.H.",
"H.H.H.H.H.H.H.H.H.H.H.H.H.H.H.H.H.H.H.H.H.H.H.H.H.H.H.H.H.H.H.H.H.H.H.H.H.H.H.H."
};
