/* XPM */
static char *_640629070459[] = {
/* columns rows colors chars-per-pixel */
"40 40 148 2 ",
"   c #000B13",
".  c #001017",
"X  c #09151D",
"o  c #0E1321",
"O  c #0D1C21",
"+  c #101622",
"@  c #121C25",
"#  c #231B2F",
"$  c #271A31",
"%  c #2B1C34",
"&  c #3B1D3E",
"*  c #361B3B",
"=  c #162229",
"-  c #1C222B",
";  c #1E282F",
":  c #1E2B32",
">  c #22252F",
",  c #252D35",
"<  c #2B233B",
"1  c #2E2D38",
"2  c #3C203F",
"3  c #3A2A3F",
"4  c #2C333B",
"5  c #34323D",
"6  c #3A323F",
"7  c #3D1F40",
"8  c #3F2141",
"9  c #323740",
"0  c #323B42",
"q  c #3B3D47",
"w  c #3C3F48",
"e  c #442444",
"r  c #452946",
"t  c #4A2B4A",
"y  c #483C4A",
"u  c #423B46",
"i  c #553352",
"p  c #583553",
"a  c #513F50",
"s  c #5E3958",
"d  c #613C5A",
"f  c #653A6C",
"g  c #7D3562",
"h  c #7E3863",
"j  c #7A3C7F",
"k  c #4B404D",
"l  c #424C52",
"z  c #594856",
"x  c #5C4B59",
"c  c #4B565B",
"v  c #53525B",
"b  c #68405E",
"n  c #6F4664",
"m  c #744966",
"M  c #784D6B",
"N  c #6E5265",
"B  c #615D67",
"V  c #725568",
"C  c #7D546F",
"Z  c #75586A",
"A  c #7A5C6E",
"S  c #6E5472",
"D  c #7F5D71",
"F  c #5A6368",
"G  c #616067",
"H  c #69656D",
"J  c #746370",
"K  c #6B7478",
"L  c #7A737B",
"P  c #813C67",
"I  c #823E68",
"U  c #8A4F74",
"Y  c #9E447B",
"T  c #895275",
"R  c #8C5D79",
"E  c #93637E",
"W  c #7C3E81",
"Q  c #7F4383",
"!  c #844684",
"~  c #894683",
"^  c #844C87",
"/  c #8A4A87",
"(  c #884E8A",
")  c #8C518C",
"_  c #8E5590",
"`  c #905791",
"'  c #915A92",
"]  c #A34D82",
"[  c #956985",
"{  c #9A6D84",
"}  c #9D7588",
"|  c #90788E",
" . c #976296",
".. c #976398",
"X. c #9F6F9C",
"o. c #9C669B",
"O. c #A17089",
"+. c #AD6492",
"@. c #B06995",
"#. c #AB7891",
"$. c #A575A1",
"%. c #AA77A5",
"&. c #A97BA4",
"*. c #808388",
"=. c #958392",
"-. c #9A8097",
";. c #9E859A",
":. c #9D989E",
">. c #A5859A",
",. c #BB859D",
"<. c #969DA0",
"1. c #B082AA",
"2. c #BE86A9",
"3. c #AF9AA7",
"4. c #AD98A9",
"5. c #B395A5",
"6. c #B59AAC",
"7. c #B88AB1",
"8. c #9CA3A5",
"9. c #ADAEB1",
"0. c #BBA6B1",
"q. c #ABB1B3",
"w. c #C58DA5",
"e. c #CA91A9",
"r. c #C69CBB",
"t. c #C5A9B9",
"y. c #D5ACBE",
"u. c #CEA7C3",
"i. c #CFABC2",
"p. c #D0A7C4",
"a. c #D1ABC2",
"s. c #DCB3C4",
"d. c #D7B6C9",
"f. c #D8B7CA",
"g. c #C5C8CA",
"h. c #D6C2CC",
"j. c #DDC1D3",
"k. c #E3C5D2",
"l. c #E9C1D0",
"z. c #E6CAD5",
"x. c #E9CCD9",
"c. c #E4D7DE",
"v. c #EDD6DF",
"b. c #F4DDE6",
"n. c #EDE3E8",
"m. c #F6EAEE",
"M. c #FFF9FC",
"N. c None",
/* pixels */
"N.N.N.N.N.N.N.N.N.N.N.N.N.N.N.N.N.N.N.N.N.N.N.N.N.N.N.N.N.N.N.N.N.N.N.N.N.N.N.N.",
"N.N.N.N.N.N.N.N.N.N.N.N.N.N.N.N.N.N.N.N.N.N.N.N.N.N.N.N.N.N.N.N.N.N.N.N.N.N.N.N.",
"N.N.N.N.N.N.N.N.N.N.N.N.N.N.N.N.N.N.N.N.N.N.N.N.N.N.N.N.N.N.N.N.N.N.N.N.N.N.N.N.",
"N.N.N.N.N.N.N.N.N.N.N.N.N.N.N.N.N.N.N.N.N.N.N.N.N.N.N.N.N.N.N.N.N.N.N.N.N.N.N.N.",
"N.N.N.N.N.N.N.N.N.N.N.N.N.N.N.N.N.N.N.N.N.N.N.N.N.N.N.N.N.N.N.N.N.N.N.N.N.N.N.N.",
"N.N.N.N.N.N.N.N.N.N.N.N.N.N.N.N.N.N.N.N.N.N.N.N.N.N.N.N.N.N.N.N.N.N.N.N.N.N.N.N.",
"N.N.N.N.N.N.N.N.N.N.N.N.N.N.N.N.N.N.N.N.N.N.N.N.N.N.N.N.N.N.N.N.N.N.N.N.N.N.N.N.",
"N.N.N.N.N.N.N.N.N.N.N.N.N.N.N.N.N.N.= @ N.N.N.N.N.N.N.N.N.N.N.N.N.N.N.N.N.N.N.N.",
"N.N.N.N.N.N.N.N.N.N.N.N.N.N.N.N.N.O H L , N.N.N.N.N.N.N.N.N.N.N.N.N.N.N.N.N.N.N.",
"N.N.N.N.N.N.N.N.N.N.N.N.N.N.N.N.o < | 6.v , N.N.N.N.N.N.N.N.N.N.N.N.N.N.N.N.N.N.",
"N.N.N.N.N.N.N.N.N.N.N.N.N.N.N.. < f ( X.6.L @ N.N.N.N.N.N.N.N.N.N.N.N.N.N.N.N.N.",
"N.N.N.N.N.N.N.N.N.N.N.N.N.N.: v S ! W ) 7.;.B 9 N.N.N.N.N.N.N.N.N.N.N.N.N.N.N.N.",
"N.N.N.N.N.N.N.N.N.N.N.N.N.X w 4.7.^ W Q ! &.t.B @ N.N.N.N.N.N.N.N.N.N.N.N.N.N.N.",
"N.N.N.N.N.N.N.N.N.N.N.N.X G =.>.o.! Q Q W _ &.;.L , N.N.N.N.N.N.N.N.N.N.N.N.N.N.",
"N.N.N.N.N.N.N.N.N.N.N.; q =.r.` W Q Q Q Q Q Q 7.6.v , N.N.N.N.N.N.N.N.N.N.N.N.N.",
"N.N.N.N.N.N.N.N.N.N.  v 3.&.` ! Q Q Q Q Q Q Q ) X.6.L @ N.N.N.N.N.N.N.N.N.N.N.N.",
"N.N.N.N.N.N.N.N.N., F :.f.%.j W Q Q Q Q Q Q Q j ) 7.;.B 9 N.N.N.N.N.N.N.N.N.N.N.",
"N.N.N.N.N.N.N.N.X l g.m.k.&.! ! Q Q Q Q Q Q Q Q Q ! &.t.B @ N.N.N.N.N.N.N.N.N.N.",
"N.N.N.N.N.N.N.= K 9.c.n.z.i.1.( W Q Q Q Q Q Q Q j W _ $.-.L 4 N.N.N.N.N.N.N.N.N.",
"N.N.N.N.N.N.N.= 8.M.v.k.z.x.f.$.( ~ ~ ! ~ ~ ~ ' ../ /  .u.0.5   N.N.N.N.N.N.N.N.",
"N.N.N.N.N.N.N.= 8.M.v.k.k.x.k.f.2.] Y Y Y Y ] p.j.+.@.a.x.0.9   N.N.N.N.N.N.N.N.",
"N.N.N.N.N.N.N.= 8.M.l.y.s.s.y.5.[ P h h h g I >.4.U T >.y.5.4   N.N.N.N.N.N.N.N.",
"N.N.N.N.N.N.N.= <.n.y.e.e.e.#.d e e e e e e e t t e e i { } 1   N.N.N.N.N.N.N.N.",
"N.N.N.N.N.N.N.N.c *.h.l.w.[ b e * 7 & 8 & & & & * * d R N y > N.N.N.N.N.N.N.N.N.",
"N.N.N.N.N.N.N.N.N.0 q.h.w.m 7 7 8 8 e 8 8 8 e 2 e i C { k . N.N.N.N.N.N.N.N.N.N.",
"N.N.N.N.N.N.N.N.N.N.0 J ,.C * & 8 8 2 8 8 8 2 & i { D 5 - N.N.N.N.N.N.N.N.N.N.N.",
"N.N.N.N.N.N.N.N.N.N.N.6 V D n t & e 8 8 8 & 2 d C R z X N.N.N.N.N.N.N.N.N.N.N.N.",
"N.N.N.N.N.N.N.N.N.N.N.N.- A O.p & 8 8 8 & e t E { 5 . N.N.N.N.N.N.N.N.N.N.N.N.N.",
"N.N.N.N.N.N.N.N.N.N.N.N.N.u a r 7 8 8 8 * d E V k - N.N.N.N.N.N.N.N.N.N.N.N.N.N.",
"N.N.N.N.N.N.N.N.N.N.N.N.N.N.o % 2 2 8 e i Z { k . N.N.N.N.N.N.N.N.N.N.N.N.N.N.N.",
"N.N.N.N.N.N.N.N.N.N.N.N.N.N.N.+ > 8 & i { R 5 - N.N.N.N.N.N.N.N.N.N.N.N.N.N.N.N.",
"N.N.N.N.N.N.N.N.N.N.N.N.N.N.N.N.@ $ $ 8 N x X N.N.N.N.N.N.N.N.N.N.N.N.N.N.N.N.N.",
"N.N.N.N.N.N.N.N.N.N.N.N.N.N.N.N.N.X X o @ @ N.N.N.N.N.N.N.N.N.N.N.N.N.N.N.N.N.N.",
"N.N.N.N.N.N.N.N.N.N.N.N.N.N.N.N.N.N.N.N.N.N.N.N.N.N.N.N.N.N.N.N.N.N.N.N.N.N.N.N.",
"N.N.N.N.N.N.N.N.N.N.N.N.N.N.N.N.N.N.N.N.N.N.N.N.N.N.N.N.N.N.N.N.N.N.N.N.N.N.N.N.",
"N.N.N.N.N.N.N.N.N.N.N.N.N.N.N.N.N.N.N.N.N.N.N.N.N.N.N.N.N.N.N.N.N.N.N.N.N.N.N.N.",
"N.N.N.N.N.N.N.N.N.N.N.N.N.N.N.N.N.N.N.N.N.N.N.N.N.N.N.N.N.N.N.N.N.N.N.N.N.N.N.N.",
"N.N.N.N.N.N.N.N.N.N.N.N.N.N.N.N.N.N.N.N.N.N.N.N.N.N.N.N.N.N.N.N.N.N.N.N.N.N.N.N.",
"N.N.N.N.N.N.N.N.N.N.N.N.N.N.N.N.N.N.N.N.N.N.N.N.N.N.N.N.N.N.N.N.N.N.N.N.N.N.N.N.",
"N.N.N.N.N.N.N.N.N.N.N.N.N.N.N.N.N.N.N.N.N.N.N.N.N.N.N.N.N.N.N.N.N.N.N.N.N.N.N.N."
};
