/* XPM */
static char *_640629023006[] = {
/* columns rows colors chars-per-pixel */
"40 40 126 2 ",
"   c #000710",
".  c #000E14",
"X  c #06141B",
"o  c #0A151E",
"O  c #0D1620",
"+  c #0F1A23",
"@  c #131724",
"#  c #191727",
"$  c #141A26",
"%  c #1A1728",
"&  c #161929",
"*  c #1C1B2C",
"=  c #231A2E",
"-  c #291C32",
";  c #301C37",
":  c #361738",
">  c #351D3A",
",  c #3B1D3D",
"<  c #152028",
"1  c #262036",
"2  c #212932",
"3  c #292D3B",
"4  c #30233F",
"5  c #3B203E",
"6  c #3D1F40",
"7  c #312540",
"8  c #3E2141",
"9  c #343F46",
"0  c #432344",
"q  c #442B4E",
"w  c #482B4A",
"e  c #522F4F",
"r  c #452C51",
"t  c #4E3059",
"y  c #5B3755",
"u  c #5C3856",
"i  c #55325F",
"p  c #672D55",
"a  c #682F57",
"s  c #683057",
"d  c #6A345A",
"f  c #6D3A5E",
"g  c #573361",
"h  c #63376B",
"j  c #64386B",
"k  c #6D3B73",
"l  c #733E79",
"z  c #7A3B7E",
"x  c #585462",
"c  c #624661",
"v  c #654D67",
"b  c #724265",
"n  c #774C6A",
"m  c #7E5B75",
"M  c #71627C",
"N  c #746979",
"B  c #9B3F74",
"V  c #8F427F",
"C  c #9C4276",
"Z  c #90437F",
"A  c #855874",
"S  c #A24D7E",
"D  c #84647D",
"F  c #7C3F81",
"G  c #7E4282",
"H  c #824485",
"J  c #844987",
"K  c #854588",
"L  c #854B88",
"P  c #914481",
"I  c #934A84",
"U  c #965088",
"Y  c #9B568E",
"T  c #9B5A8F",
"R  c #8F5590",
"E  c #945F94",
"W  c #A85A87",
"Q  c #856E82",
"!  c #976580",
"~  c #996984",
"^  c #867185",
"/  c #8A7087",
"(  c #976599",
")  c #98689C",
"_  c #967B9C",
"`  c #AF6691",
"'  c #AF7892",
"]  c #A6719F",
"[  c #B37096",
"{  c #B27B95",
"}  c #B27F98",
"|  c #AB79A6",
" . c #B17AAB",
".. c #948394",
"X. c #92979C",
"o. c #AF84AD",
"O. c #B386AC",
"+. c #AD93A5",
"@. c #A599A6",
"#. c #B587B3",
"$. c #B188B1",
"%. c #BA98BC",
"&. c #BAAFBB",
"*. c #BAB0BB",
"=. c #C098B6",
"-. c #C29AB8",
";. c #CBA0B7",
":. c #BFBFC4",
">. c #C6AAC8",
",. c #CBAEC8",
"<. c #D4AFC6",
"1. c #CBB2C0",
"2. c #D4B2C6",
"3. c #D1BCD3",
"4. c #DFCBDB",
"5. c #D7D1D8",
"6. c #DCD7DD",
"7. c #DCD8DD",
"8. c #E1CDD9",
"9. c #E6D9E4",
"0. c #E8DDE9",
"q. c #EDE7EC",
"w. c #EBE8EB",
"e. c #F2EDF2",
"r. c #FBFAFB",
"t. c None",
/* pixels */
"t.t.t.t.t.t.t.t.t.t.t.t.t.t.t.t.t.t.t.t.t.t.t.t.t.t.t.t.t.t.t.t.t.t.t.t.t.t.t.t.",
"t.t.t.t.t.t.t.t.t.t.t.t.t.t.t.t.t.t.t.t.t.t.t.t.t.t.t.t.t.t.t.t.t.t.t.t.t.t.t.t.",
"t.t.t.t.t.t.t.t.t.t.t.t.t.t.t.t.t.t.t.t.t.t.t.t.t.t.t.t.t.t.t.t.t.t.t.t.t.t.t.t.",
"t.t.t.t.t.t.t.t.t.t.t.t.t.t.t.t.t.t.t.t.t.t.t.t.t.t.t.t.t.t.t.t.t.t.t.t.t.t.t.t.",
"t.t.t.t.t.t.t.t.t.t.t.t.t.t.t.t.t.t.t.t.t.t.t.t.t.t.t.t.t.t.t.t.t.t.t.t.t.t.t.t.",
"t.t.t.t.t.t.t.t.t.t.t.t.t.t.t.t.t.t.t.t.t.t.t.t.t.t.t.t.t.t.t.t.t.t.t.t.t.t.t.t.",
"t.t.t.t.t.t.t.t.t.t.t.t.t.t.t.t.t.t.t.t.t.t.t.t.t.t.t.t.t.t.t.t.t.t.t.t.t.t.t.t.",
"t.t.t.t.t.t.t.t.t.t.t.t.t.t.t.t.t.t.t.t.t.t.t.t.t.t.t.t.t.t.t.t.t.t.t.t.t.t.t.t.",
"t.t.t.t.t.t.t.t.t.t.t.t.t.t.t.t.t.t.t.t.t.t.t.t.t.t.t.t.t.t.t.t.t.t.t.t.t.t.t.t.",
"t.t.t.t.t.t.t.t.t.t.t.t.t.t.t.t.t.t.* * t.t.t.t.t.t.t.t.t.t.t.t.t.t.t.t.t.t.t.t.",
"t.t.t.t.t.t.t.t.t.t.t.t.t.t.t.t.t.+ t g 1 t.t.t.t.t.t.t.t.t.t.t.t.t.t.t.t.t.t.t.",
"t.t.t.t.t.t.t.t.t.t.t.t.t.t.t.t.1 7 g F r - t.t.t.t.t.t.t.t.t.t.t.t.t.t.t.t.t.t.",
"t.t.t.t.t.t.t.t.t.t.t.t.t.t.t.O 7 l K L G t & t.t.t.t.t.t.t.t.t.t.t.t.t.t.t.t.t.",
"t.t.t.t.t.t.t.t.t.t.t.t.t.t.& q h L | $.R k t - t.t.t.t.t.t.t.t.t.t.t.t.t.t.t.t.",
"t.t.t.t.t.t.t.t.t.t.t.t.t.& 7 k H L -.<.E F F r * t.t.t.t.t.t.t.t.t.t.t.t.t.t.t.",
"t.t.t.t.t.t.t.t.t.t.t.t.O q k G F L %.2.E F G n g * t.t.t.t.t.t.t.t.t.t.t.t.t.t.",
"t.t.t.t.t.t.t.t.t.t.t.1 7 j K H F L =.<.E F G K l r 1 t.t.t.t.t.t.t.t.t.t.t.t.t.",
"t.t.t.t.t.t.t.t.t.t.O 7 n G G G F L -.<.E F G G G G t $ t.t.t.t.t.t.t.t.t.t.t.t.",
"t.t.t.t.t.t.t.t.t.* 8 k F K G G F L ,.8.( F G G G K k t 1 t.t.t.t.t.t.t.t.t.t.t.",
"t.t.t.t.t.t.t.t.& 7 l K F H G G F L 3.0.) z G G G G K G q * t.t.t.t.t.t.t.t.t.t.",
"t.t.t.t.t.t.t.+ 8 v G G G G G F z L 3.0.) z G G G G H H l i * t.t.t.t.t.t.t.t.t.",
"t.t.t.t.t.t.t.$ G %.Y K P V U | o.%.9.e.>.$.| T P P Z I  ._ 3 . t.t.t.t.t.t.t.t.",
"t.t.t.t.t.t.t.< X.8.` B C C W ;.8.q.r.r.e.9.2.[ C C B S <.:.9   t.t.t.t.t.t.t.t.",
"t.t.t.t.t.t.t.@ x ^ k p s s f A Q ..5.w.@.Q D b a a p a Q N 2 . t.t.t.t.t.t.t.t.",
"t.t.t.t.t.t.t.o = : 5 5 8 5 5 6 > 0 &.7.v : 6 6 6 6 0 , > - @ t.t.t.t.t.t.t.t.t.",
"t.t.t.t.t.t.t.t.o # 5 8 5 0 8 , : w *.w.v : 6 6 8 8 0 , = @ t.t.t.t.t.t.t.t.t.t.",
"t.t.t.t.t.t.t.t.t.+ = ; 0 0 , 0 , w +.;.c , 8 8 0 0 > - $ t.t.t.t.t.t.t.t.t.t.t.",
"t.t.t.t.t.t.t.t.t.t.o = > 0 0 , > w ~ } u , 8 8 , 8 - o t.t.t.t.t.t.t.t.t.t.t.t.",
"t.t.t.t.t.t.t.t.t.t.t.@ = > 5 0 , w D [ y , 8 0 5 = $ t.t.t.t.t.t.t.t.t.t.t.t.t.",
"t.t.t.t.t.t.t.t.t.t.t.t.X = 5 5 , w S { u , 0 > - @ t.t.t.t.t.t.t.t.t.t.t.t.t.t.",
"t.t.t.t.t.t.t.t.t.t.t.t.t.@ # 5 , w ~ +.y , 8 = @ t.t.t.t.t.t.t.t.t.t.t.t.t.t.t.",
"t.t.t.t.t.t.t.t.t.t.t.t.t.t.O = > 0 n A e > - $ t.t.t.t.t.t.t.t.t.t.t.t.t.t.t.t.",
"t.t.t.t.t.t.t.t.t.t.t.t.t.t.t.o * , 0 0 8 - O t.t.t.t.t.t.t.t.t.t.t.t.t.t.t.t.t.",
"t.t.t.t.t.t.t.t.t.t.t.t.t.t.t.t.$ % # # * # t.t.t.t.t.t.t.t.t.t.t.t.t.t.t.t.t.t.",
"t.t.t.t.t.t.t.t.t.t.t.t.t.t.t.t.t.X X X X t.t.t.t.t.t.t.t.t.t.t.t.t.t.t.t.t.t.t.",
"t.t.t.t.t.t.t.t.t.t.t.t.t.t.t.t.t.t.t.t.t.t.t.t.t.t.t.t.t.t.t.t.t.t.t.t.t.t.t.t.",
"t.t.t.t.t.t.t.t.t.t.t.t.t.t.t.t.t.t.t.t.t.t.t.t.t.t.t.t.t.t.t.t.t.t.t.t.t.t.t.t.",
"t.t.t.t.t.t.t.t.t.t.t.t.t.t.t.t.t.t.t.t.t.t.t.t.t.t.t.t.t.t.t.t.t.t.t.t.t.t.t.t.",
"t.t.t.t.t.t.t.t.t.t.t.t.t.t.t.t.t.t.t.t.t.t.t.t.t.t.t.t.t.t.t.t.t.t.t.t.t.t.t.t.",
"t.t.t.t.t.t.t.t.t.t.t.t.t.t.t.t.t.t.t.t.t.t.t.t.t.t.t.t.t.t.t.t.t.t.t.t.t.t.t.t."
};
