/* XPM */
static char *_640629008957[] = {
/* columns rows colors chars-per-pixel */
"40 40 167 2 ",
"   c #000C13",
".  c #020D18",
"X  c #011017",
"o  c #04121A",
"O  c #08151D",
"+  c #0E1421",
"@  c #0F1922",
"#  c #101724",
"$  c #141B26",
"%  c #1E182C",
"&  c #231D2F",
"*  c #291E35",
"=  c #3A1D3D",
"-  c #341839",
";  c #162229",
":  c #1E282F",
">  c #1C262D",
",  c #1E2B32",
"<  c #21252E",
"1  c #272732",
"2  c #232C34",
"3  c #2B2A35",
"4  c #2F2E39",
"5  c #2D223D",
"6  c #3B203F",
"7  c #31363F",
"8  c #3E1F40",
"9  c #312040",
"0  c #3F2141",
"q  c #313B42",
"w  c #3A3C47",
"e  c #3C3F48",
"r  c #442545",
"t  c #4E2C4C",
"y  c #52274B",
"u  c #532D4E",
"i  c #48384A",
"p  c #573051",
"a  c #583152",
"s  c #603B59",
"d  c #563060",
"f  c #63386B",
"g  c #783F7D",
"h  c #76377C",
"j  c #3F404A",
"k  c #424C52",
"l  c #484952",
"z  c #594857",
"x  c #5E415D",
"c  c #534352",
"v  c #475258",
"b  c #4A5459",
"n  c #53525B",
"m  c #60425E",
"M  c #684762",
"N  c #704865",
"B  c #764C69",
"V  c #7E496B",
"C  c #6C5463",
"Z  c #7A506D",
"A  c #76546E",
"S  c #6E5273",
"D  c #5B666A",
"F  c #596267",
"G  c #616067",
"H  c #6A7378",
"J  c #7C777F",
"K  c #8F3A6C",
"L  c #913F6F",
"P  c #99457E",
"I  c #984575",
"U  c #885A76",
"Y  c #805B71",
"T  c #915F7B",
"R  c #8E657B",
"E  c #93627E",
"W  c #7B3E80",
"Q  c #7E4283",
"!  c #814584",
"~  c #844987",
"^  c #884F8A",
"/  c #854C88",
"(  c #9D4D84",
")  c #8D558E",
"_  c #915A92",
"`  c #A65789",
"'  c #A75A84",
"]  c #A55E90",
"[  c #9A6C83",
"{  c #8B7F89",
"}  c #9A7185",
"|  c #9A6599",
" . c #A36388",
".. c #A6758C",
"X. c #A86393",
"o. c #AD7B92",
"O. c #B77D98",
"+. c #BD7A9C",
"@. c #A574A1",
"#. c #A87FA3",
"$. c #AC7CA8",
"%. c #84898E",
"&. c #93838E",
"*. c #958392",
"=. c #978B94",
"-. c #949A9D",
";. c #A88093",
":. c #B9889F",
">. c #BD829B",
",. c #9B9DA2",
"<. c #BD88A0",
"1. c #B386AC",
"2. c #AF9AA7",
"3. c #B39DA9",
"4. c #BE95AA",
"5. c #B98EB1",
"6. c #BE93B5",
"7. c #9BA0A4",
"8. c #ABAAAF",
"9. c #B4A0AB",
"0. c #ABAEB1",
"q. c #BDA9B4",
"w. c #B0B5B7",
"e. c #C78BA3",
"r. c #CA90A7",
"t. c #CD92AA",
"y. c #CE99AF",
"u. c #C196B7",
"i. c #C49ABA",
"p. c #D597B1",
"a. c #D29CB3",
"s. c #C2A2B5",
"d. c #C9A9BC",
"f. c #D7A3B8",
"g. c #D5A2B7",
"h. c #C9A7C5",
"j. c #D1AEC4",
"k. c #DEAEC1",
"l. c #CEB9C4",
"z. c #D3B3C5",
"x. c #DABCC9",
"c. c #D8B7C8",
"v. c #E2B8CA",
"b. c #C5C6C8",
"n. c #C7CBCC",
"m. c #DEC2CE",
"M. c #DFC1D0",
"N. c #D4CCD1",
"B. c #DFD7DC",
"V. c #E1C0CE",
"C. c #E2C4D2",
"Z. c #E6CAD5",
"A. c #E8CBD6",
"S. c #E7CED8",
"D. c #E0D7DB",
"F. c #EBD4DD",
"G. c #E0D8DD",
"H. c #ECD4E3",
"J. c #F2DBE4",
"K. c #E7E9E9",
"L. c #F5E2E9",
"P. c #F3EBEF",
"I. c #FFF3F8",
"U. c #F7F8F8",
"Y. c white",
"T. c #F2F3F3",
"R. c None",
/* pixels */
"R.R.R.R.R.R.R.R.R.R.R.R.R.R.R.R.R.R.R.R.R.R.R.R.R.R.R.R.R.R.R.R.R.R.R.R.R.R.R.R.",
"R.R.R.R.R.R.R.R.R.R.R.R.R.R.R.R.R.R.R.R.R.R.R.R.R.R.R.R.R.R.R.R.R.R.R.R.R.R.R.R.",
"R.R.R.R.R.R.R.R.R.R.R.R.R.R.R.R.R.R.R.R.R.R.R.R.R.R.R.R.R.R.R.R.R.R.R.R.R.R.R.R.",
"R.R.R.R.R.R.R.R.R.R.R.R.R.R.R.R.R.R.R.R.R.R.R.R.R.R.R.R.R.R.R.R.R.R.R.R.R.R.R.R.",
"R.R.R.R.R.R.R.R.R.R.R.R.R.R.R.R.R.R.R.R.R.R.R.R.R.R.R.R.R.R.R.R.R.R.R.R.R.R.R.R.",
"R.R.R.R.R.R.R.R.R.R.R.R.R.R.R.R.R.R.o o R.R.R.R.R.R.R.R.R.R.R.R.R.R.R.R.R.R.R.R.",
"R.R.R.R.R.R.R.R.R.R.R.R.R.R.R.R.R.R.l n 2 R.R.R.R.R.R.R.R.R.R.R.R.R.R.R.R.R.R.R.",
"R.R.R.R.R.R.R.R.R.R.R.R.R.R.R.R.R.2 &.9.w . R.R.R.R.R.R.R.R.R.R.R.R.R.R.R.R.R.R.",
"R.R.R.R.R.R.R.R.R.R.R.R.R.R.R.R.e &.l.z.S 9 O R.R.R.R.R.R.R.R.R.R.R.R.R.R.R.R.R.",
"R.R.R.R.R.R.R.R.R.R.R.R.R.R.R.q Q x.C.i._ d & @ R.R.R.R.R.R.R.R.R.R.R.R.R.R.R.R.",
"R.R.R.R.R.R.R.R.R.R.R.R.R.R.j 0.K.N.5.) ~ W f 5 X R.R.R.R.R.R.R.R.R.R.R.R.R.R.R.",
"R.R.R.R.R.R.R.R.R.R.R.R.R.v %.G.F.q._ W W ! ~ S n , R.R.R.R.R.R.R.R.R.R.R.R.R.R.",
"R.R.R.R.R.R.R.R.R.R.R.R.2 7.P.F.u.) V Q Q Q ~ 5.2.e O R.R.R.R.R.R.R.R.R.R.R.R.R.",
"R.R.R.R.R.R.R.R.R.R.R.v 7.N.L.H.6.~ W Q Q Q ! | #.*.G O R.R.R.R.R.R.R.R.R.R.R.R.",
"R.R.R.R.R.R.R.R.R.R.q %.P.J.C.z.1.~ W ! Q ! Q W _ i.*.e > R.R.R.R.R.R.R.R.R.R.R.",
"R.R.R.R.R.R.R.R.R.q 0.B.F.F.z.@.^ ! Q Q Q ! Q Q ! _ #.2.n   R.R.R.R.R.R.R.R.R.R.",
"R.R.R.R.R.R.R.R.b %.K.I.Z.A.j.) W W Q Q V W Q Q W W $.v.=.n 3 R.R.R.R.R.R.R.R.R.",
"R.R.R.R.R.R.R.; -.U.Y.P.Z.A.j.| W ~ ~ ! / / ! ! ! W @.v.S.3.q . R.R.R.R.R.R.R.R.",
"R.R.R.R.R.R.R.; 7.Y.Y.P.S.A.m.d.i.u.] ] h.6.( P ( ( ` +.v.q.q   R.R.R.R.R.R.R.R.",
"R.R.R.R.R.R.R.; 7.Y.Y.L.V.v.x.d.d.s.| ` l.i.I L K L L ` p.3.4   R.R.R.R.R.R.R.R.",
"R.R.R.R.R.R.R.; 7.Y.Y.F.a.p.:.A z m a a m m y y y t V +.p.o.4   R.R.R.R.R.R.R.R.",
"R.R.R.R.R.R.R.; H w.T.J.t.e...p - = = = = = 6 = = = B <...M 1 R.R.R.R.R.R.R.R.R.",
"R.R.R.R.R.R.R.R.O k n.F.p.t.o.s = 8 8 0 0 0 0 0 6 r Z >.z @ R.R.R.R.R.R.R.R.R.R.",
"R.R.R.R.R.R.R.R.R., F ,.S.k.>.[ N r 8 0 0 0 0 = t U A c 4 R.R.R.R.R.R.R.R.R.R.R.",
"R.R.R.R.R.R.R.R.R.R.  D b.x.g.y.E r = r r 6 r u M [ C $ R.R.R.R.R.R.R.R.R.R.R.R.",
"R.R.R.R.R.R.R.R.R.R.R., k 0.J.f.E r = 6 6 = r U [ i < R.R.R.R.R.R.R.R.R.R.R.R.R.",
"R.R.R.R.R.R.R.R.R.R.R.R.O H 0.x.4.Z y = 8 8 r M C < R.R.R.R.R.R.R.R.R.R.R.R.R.R.",
"R.R.R.R.R.R.R.R.R.R.R.R.R.O k b.S.:.B r 0 0 6 & $ R.R.R.R.R.R.R.R.R.R.R.R.R.R.R.",
"R.R.R.R.R.R.R.R.R.R.R.R.R.R., D &.r.O.U u 5 % O R.R.R.R.R.R.R.R.R.R.R.R.R.R.R.R.",
"R.R.R.R.R.R.R.R.R.R.R.R.R.R.R.  i } o.R t % O R.R.R.R.R.R.R.R.R.R.R.R.R.R.R.R.R.",
"R.R.R.R.R.R.R.R.R.R.R.R.R.R.R.R.< 3 4 1 ; + R.R.R.R.R.R.R.R.R.R.R.R.R.R.R.R.R.R.",
"R.R.R.R.R.R.R.R.R.R.R.R.R.R.R.R.R.  X   o R.R.R.R.R.R.R.R.R.R.R.R.R.R.R.R.R.R.R.",
"R.R.R.R.R.R.R.R.R.R.R.R.R.R.R.R.R.R.R.R.R.R.R.R.R.R.R.R.R.R.R.R.R.R.R.R.R.R.R.R.",
"R.R.R.R.R.R.R.R.R.R.R.R.R.R.R.R.R.R.R.R.R.R.R.R.R.R.R.R.R.R.R.R.R.R.R.R.R.R.R.R.",
"R.R.R.R.R.R.R.R.R.R.R.R.R.R.R.R.R.R.R.R.R.R.R.R.R.R.R.R.R.R.R.R.R.R.R.R.R.R.R.R.",
"R.R.R.R.R.R.R.R.R.R.R.R.R.R.R.R.R.R.R.R.R.R.R.R.R.R.R.R.R.R.R.R.R.R.R.R.R.R.R.R.",
"R.R.R.R.R.R.R.R.R.R.R.R.R.R.R.R.R.R.R.R.R.R.R.R.R.R.R.R.R.R.R.R.R.R.R.R.R.R.R.R.",
"R.R.R.R.R.R.R.R.R.R.R.R.R.R.R.R.R.R.R.R.R.R.R.R.R.R.R.R.R.R.R.R.R.R.R.R.R.R.R.R.",
"R.R.R.R.R.R.R.R.R.R.R.R.R.R.R.R.R.R.R.R.R.R.R.R.R.R.R.R.R.R.R.R.R.R.R.R.R.R.R.R.",
"R.R.R.R.R.R.R.R.R.R.R.R.R.R.R.R.R.R.R.R.R.R.R.R.R.R.R.R.R.R.R.R.R.R.R.R.R.R.R.R."
};
