/* XPM */
static char *_640618926922[] = {
/* columns rows colors chars-per-pixel */
"40 40 7 1 ",
"  c white",
". c #FEFEFE",
"X c #DFDFDF",
"o c gray84",
"O c gray99",
"+ c gray72",
"@ c #C0C0C0",
/* pixels */
"+XooooooooooooooooooooooooooooooooooooX+",
"X                                      X",
"o.OOOOOOOOOOOOOOOOOOOOOOOOOOOOOOOOOOOO X",
"o O   ...  .........                 O X",
"o O   .. .................. .. .. .. O X",
"o O.                .................O X",
"o O                  ................O X",
"o O   ...            ................O X",
"o O    .            .................O X",
"o O                 .................O X",
"o O.       ............. .. .. .. .. O X",
"o O..     ................. .. .. .. O X",
"o O        .........                 . X",
"o O.      .............  .. .. .. .. O X",
"o O..     .................... .. ...O X",
"o O        .........                 . X",
"o O       ..........     .           O X",
"o O..     ...........................O X",
"o O        .........  ..             . X",
"o O       ..........  .              O X",
"o O       ..........                 . X",
"o O       ..........                 . X",
"o O       ..........                 . X",
"o O       ...........                . X",
"o O       ..........                 . X",
"o O       ..........                 . X",
"o O       ..........                 . X",
"o O       ..........                 . X",
"o O       ..........                 . X",
"o O       ..........                 . X",
"o O       ..........                 . X",
"o O       ..........                 . X",
"o O       ..........                 . X",
"o O       ..........                 . X",
"o O       ..........                 . X",
"o O       ..........                 . X",
"o O       ..........                 . X",
"o O.......OOOOOOOOOO.................O X",
"o                                      X",
"@XXXXXXXXXXXXXXXXXXXXXXXXXXXXXXXXXXXXXX@"
};
