/* XPM */
static char *_640615999664[] = {
/* columns rows colors chars-per-pixel */
"40 40 78 1 ",
"  c #979797",
". c #989898",
"X c #9D9D9D",
"o c gray63",
"O c #A2A2A2",
"+ c #A4A4A4",
"@ c #A5A5A5",
"# c gray65",
"$ c #A7A7A7",
"% c gray66",
"& c #A9A9A9",
"* c #AAAAAA",
"= c gray67",
"- c #ACACAC",
"; c gray68",
": c #AEAEAE",
"> c #AFAFAF",
", c gray69",
"< c #B1B1B1",
"1 c #B2B2B2",
"2 c gray70",
"3 c #B4B4B4",
"4 c gray71",
"5 c #B6B6B6",
"6 c #B7B7B7",
"7 c gray72",
"8 c #B9B9B9",
"9 c gray73",
"0 c #BBBBBB",
"q c #BCBCBC",
"w c gray74",
"e c gray",
"r c gray75",
"t c #C0C0C0",
"y c #C1C1C1",
"u c gray76",
"i c #C3C3C3",
"p c gray77",
"a c #C5C5C5",
"s c #C6C6C6",
"d c gray78",
"f c #C8C8C8",
"g c gray79",
"h c #CACACA",
"j c #CBCBCB",
"k c gray80",
"l c #CDCDCD",
"z c #CECECE",
"x c gray81",
"c c #D0D0D0",
"v c gray82",
"b c #D2D2D2",
"n c LightGray",
"m c gray83",
"M c #D5D5D5",
"N c gray84",
"B c #D7D7D7",
"V c #D8D8D8",
"C c gray85",
"Z c #DADADA",
"A c gray86",
"S c gainsboro",
"D c #DDDDDD",
"F c gray87",
"G c #DFDFDF",
"H c gray88",
"J c #E1E1E1",
"K c #E2E2E2",
"L c gray89",
"P c #E4E4E4",
"I c gray90",
"U c #E6E6E6",
"Y c #E7E7E7",
"T c gray91",
"R c #E9E9E9",
"E c #EAEAEA",
"W c gray92",
"Q c None",
/* pixels */
"DLPLPPLQLDjCQQQQQLDLQQLlLLDCDLLLLLDDlDPP",
"QQQQQQQQQQjQQQQQQQQQQQQjQQQQQQQQQQQLvPTP",
"QQQQQQQQQQjQQQQQQQQQQQQjLQQQQQQQQQQTvTTT",
",,>,,,,4>$,4$$O$*>,,*$*>*O$$$O .XXO*,$$*",
"tttt4ttjsqlt9tqttqtjtsslsqtsq9*444qqjqqt",
"QQQQjQQQQQQQQQQQQjCDQQDQQQQQQQsLLLLLLLPT",
"QQQQlDQQQQQQQQQQQjCQQQQQQQQQQM9DLDLLDLPP",
"QQQQ4tQQQQQQQQsQqtjttsttsttqq9*tq9qqqtts",
"*>>*44*>>>,q4,949t949499q94,4>44>O$$*>,4",
"QQQQQQQQQQlQQQQQQQQQQQQlQQQQQQDDQQPvvPTT",
"QQQQQQQQQQlDQQQQQQQQQQQlQQQQQQQQQQQvvPPP",
"QQQQQQQQQQsMQQQQQQQQQQQjQQQQQQQQMvQllQLL",
"4,**>,>*>,,,4,44,4,q4$$4>>>>>>$>>>>,9,4,",
"QQMQlMQDDQQQQQQQQlCQCQMQQQQDCvsCCLDDDDDD",
"QQQQlQQQQQQQQQQQQvQQQQQQQQQQQvsQQQQQDQQQ",
"QQQQlQQQQQQQQQQQQlQQQQQQQQQQQMjQQQQQQQQQ",
"QQqq9qQQ944,>>94*,4>>>99,4>,,$>****>4444",
"stttjjttss9tqtjjqjssjsjtjljjjslsjjltjvvv",
"QQQQQQQQQQsMQQQQQQQQQQQjQQQQQQQQQQQMMQQQ",
"QQQQQQQQQQsMQQQQQQQQQQQjQQQQQQQQQQQMCQQQ",
">>***>>,49,q499999qqqqtt94qq9>>,,94499,4",
"tstq9tqtjlvvjvvlvsvvMMMCMMMMMslvlMMCCCMC",
"QQQQQMQQQQQQQQQQQlQQQQQQQQQQQvMQQQQQQQQQ",
"QQQQQMQQQQQQQQQQQvQQQQQQQQQQQlMQQQQQQQQQ",
"QtQq4949tqtsjtttstsq99999q9494999qtq44qq",
"4949,9,9qtqsjstjlllsqqttsssssjlsjlljjsvl",
"QQQQQQQQQQsMQQQQQQQQQQQMQQQQQQQQQQQMQQQQ",
"QQQQQQQQQQlQQQQQQQQQQQQlQQQQQQQQQQQCPQQQ",
"QQQQQQQQQQtjQQQQQQQQQQjtjjjssjssQ99qjtst",
",>,4,>4499tt449qtqsljsjjtttst9tq499sstts",
"QQQQjsQQQQQQQQQQQjDQQQQQQQQQQjCQQQQQQQQQ",
"QQQQlsQQQQQQQQQQQsDQQQQQQQQQQjDQQQQQQQQQ",
"QQQvq9llQQQsQjsjsqsjQsstqqttt9tttqQ9qq99",
"tttttsttst9ttssjjljjjjsqjsjlslljlllqllll",
"QQQQQQQQQQjMQQQQQQQQQQMjQQQQQQQQQQQjTQQT",
"QQQQQQQQQQlMQQQQQQQQQQQjQQQQQQQQQQQvTQQQ",
"QQQQQsslls9jjsjjjstttjtsljstqt9999qtq494",
"tsssq9lvljlvllvvvsljlMCCCvvMMjMMCCCDCMCD",
"QQQQQtQQQQQQQQQQQlPQQQQQQQQQQlQQQQQQQQQQ",
"QQQQQsQQQQQQQQQQQsLQQQQQQQQQQvQQQQQQQQQQ"
};
