/* XPM */
static char *_640619576311[] = {
/* columns rows colors chars-per-pixel */
"40 40 75 1 ",
"  c #F3F4F3",
". c #FFABD0",
"X c #FFCEE3",
"o c #FFA8CE",
"O c #FFA2CA",
"+ c #FF9EC8",
"@ c #FFBFDC",
"# c #F3F2F2",
"$ c #FFB5D7",
"% c #FFB1D5",
"& c #FFEAED",
"* c #FFDDE9",
"= c #FFCAE1",
"- c #FFA5CD",
"; c #FFB8DA",
": c #FFBBDB",
"> c #FFC3DE",
", c #FFDAE8",
"< c #FFC6E1",
"1 c #FFC6DD",
"2 c #FFD2E5",
"3 c #FFE5EC",
"4 c #FFB3D2",
"5 c #FFD7E7",
"6 c #FFADD3",
"7 c #FFD4E5",
"8 c #FF98C6",
"9 c #F5EBEF",
"0 c #FFE0EA",
"q c #FFAFCF",
"w c #FF84B2",
"e c #FF93C4",
"r c #FFD6E6",
"t c #FF92BB",
"y c #F7DEEA",
"u c #FF9ABE",
"i c #FF8CB8",
"p c #F4F0F1",
"a c #FACEE2",
"s c #F7E3ED",
"d c #FFB8D5",
"f c #FE8EAC",
"g c #FFB0C8",
"h c #FFA7BD",
"j c #FFBDD8",
"k c #FFAACA",
"l c #F6E7EE",
"z c #FF9DB5",
"x c #F7D9E7",
"c c #FF9FC4",
"v c #FC819C",
"b c #FFA5C4",
"n c #F6667D",
"m c #FFABC2",
"M c #F97859",
"N c #FFBECF",
"B c #FEAF55",
"V c #FE80A9",
"C c #FFA0BC",
"Z c #F86C88",
"A c #FAB8D4",
"S c #FFB6C4",
"D c #FFB6CC",
"F c #FBDBEA",
"G c #FFB0B9",
"H c #FEA051",
"J c #FFCFDB",
"K c #F56370",
"L c #FD86A3",
"P c #F9758C",
"I c #FA7695",
"U c #FFC8D4",
"Y c #FB864E",
"T c #FE9A4F",
"R c #F76A63",
/* pixels */
"  ##  ##  # psFFlp#9aqAl       #  ##  ##",
"  ##  ##   pF5,,55F@mhh4y9ssFy9#  ##  ##",
"##  ##  # #s,03305r5SGGbqXXX2*,s##  ##  ",
"##  ##   #y*33&&3020JGGg<25r0&5Xl   ##  ",
"  ##   p9yr3&&&&&35**SG1r,,*&37Xx ##  ##",
"  ##  xAgd,&&&&&&3*70gg2,**3&05=<9 #  ##",
"##   s-+hS,&&&&330,X,dj2,*0&&05>$x  ##  ",
"   # acbOg23&30,,72<X<=25,0&&0X$$>x9  # ",
"  #  a8c++@*3*2X==1@<<X27r,33,@%;.+qy ##",
"#  ps:-O+eoX,r<@@@j;:@X22X2r51$$;kmh4p  ",
"##la::$q-++@XX>;;$%%%;=X<>1=>%%;4mm+Ol  ",
"#a+8+-6ddo+.><>;%.--o%<<:;j;6.$$mGb8+9 #",
"y+eeeee8-.o+$@@$.+uuc.@$..6.-6%chSk+8l #",
"Ae888eeee8OO-$dqkuitubq+8+O+-%o.j@>>>9  ",
"o8OOO+88e8+--.qkbtVVfzuiite+%::@@>1>>2s#",
"j8Oo..oO+8e8+ObCfvZZIvVVwi+%;:@<=1@d4.$y",
"y+8O.666o-+ettifInMMMnZIfcq$@=7,21d.OO6a",
"9%+8+-..-O++uiVInMTBHMKPfmD>Xr5rX1d%.6%=",
"p<%oO+Oo6.O8tivnMTBBBTRZfgNj1X2r2=@$.o$y",
" yo%$6.6%;;$kuvnMHBBBTMZLhgN17,,71do-.1p",
"#Aiug4%%$$%qkCLnMTBBBTMPfhNU25rX>$6oooa ",
"9+wiChco$%o+cCLZKYTHHYKPzSN1=<@%o-OO-@9 ",
"l8wwCDd:@;.OctLZnRMYYRnZfSNj@%oOOO--.l #",
"#AVt4;@X2<:quifvPnKKKnPvfCgd;;%kO+tiey #",
" 9A$;>,05=$OuuzzvPZnvvvzhCbq4%$qCtwVwA# ",
"#pa%@*&37>$q.bbhffLvzGfzSDD4d4o6oiwwwq# ",
" l;%<0&02=>:%OkbzhzzSNztgN111@qOoOwwcy #",
" s$$>2*0*2>;6-4kmShmUUbukj=772=4O.cq9 ##",
" y$%$@r3,<>:6$$4NNDNJJqckdX5,,*X4o:9 #  ",
" s;%6$1X=X=;$:;1JJUJ,X$O4j=5***r@6:9 #  ",
" 9>%oo%@XX:$4:@r5rr032:oq@=r*,71;%>p  ##",
" #x%OO.$:;%mg:<,**0&32jq4jXr*r=do.=#  ##",
"# #y>$%%%+ttq:17**,302jmdj15*5<$O-<# #  ",
"##  plF2cwww.@@172X,r=jhg11=,7<$o-a# #  ",
"  ##    AwVw6@dd1@j=<<dCub11=<;6O-s   ##",
"  ##  # lgt+%:q.$44::>Duiwu1>@%--x    ##",
"##  ##   p9pa:o-6--%;>+iwVtsyaxxl # ##  ",
"       ##   px%.6O-%:=.tie1#    # #     ",
"  ##  ##  ##  x:$q4=y99xas#   ##  ##  ##",
"##  ##  ##  # #sraxp        ##  ##  ##  "
};
