/* XPM */
static char *_640619787419[] = {
/* columns rows colors chars-per-pixel */
"40 40 120 2 ",
"   c gray96",
".  c #E95C6E",
"X  c #F9F9F9",
"o  c #F1F1F1",
"O  c #F8F7F7",
"+  c #F8F8F8",
"@  c #F3F2F2",
"#  c #F5F4F4",
"$  c #F6F6F6",
"%  c #F3F3F3",
"&  c #F6F4F5",
"*  c #F1F0F0",
"=  c #E95D6F",
"-  c #EC6173",
";  c #F5EFEF",
":  c #E9576B",
">  c #FBFBFB",
",  c #F6F9F8",
"<  c #EC5F72",
"1  c #DC4559",
"2  c #E95B6D",
"3  c #E75064",
"4  c #EA5E71",
"5  c #F6F7F7",
"6  c #F0EFEF",
"7  c #FCFDFD",
"8  c #D5495B",
"9  c #F2FFFE",
"0  c gray85",
"q  c #F5FAFA",
"w  c #DA4155",
"e  c #EB7483",
"r  c #EC6B7C",
"t  c #E44A5F",
"y  c #E95468",
"u  c #F5F3F3",
"i  c #F7FDFC",
"p  c #C4CDCC",
"a  c #D8DFDE",
"s  c #D83E52",
"d  c #FBFFFF",
"f  c #C81E35",
"g  c #D7C0C3",
"h  c #F5E1E4",
"j  c #F1DCDF",
"k  c #CCA3A8",
"l  c #DAE5E4",
"z  c #E86173",
"x  c #E96879",
"c  c #D1717D",
"v  c #C6C5C5",
"b  c #DFDFDF",
"n  c #CBD0D0",
"m  c #DFEBEA",
"M  c #DEC9CC",
"N  c #E05062",
"B  c #C1616D",
"V  c #DF475C",
"C  c #E5BDC3",
"Z  c #DCB6BB",
"A  c #E97080",
"S  c #EF6F80",
"D  c #F8F6F7",
"F  c gray79",
"G  c #D45E6D",
"H  c #CC4F5F",
"J  c #DE97A0",
"K  c #E88692",
"L  c #B38084",
"P  c #F3F1F1",
"I  c #CFD7D6",
"U  c #D2AAAF",
"Y  c #EE5469",
"T  c #F2ECEC",
"R  c #D9AFB4",
"E  c #CA6774",
"W  c #F8FFFF",
"Q  c #EBCDD0",
"!  c #D4364B",
"~  c #B5B5B2",
"^  c #DDCED0",
"/  c #C48A8F",
"(  c #E6B8BD",
")  c #EF7787",
"_  c #E5E7E7",
"`  c #CC2D41",
"'  c #CD5968",
"]  c #E6A2AB",
"[  c #D17782",
"{  c #AAABAB",
"}  c #E55669",
"|  c #DCA3A9",
" . c #DE5567",
".. c #CE2138",
"X. c #F0596C",
"o. c #EED6D9",
"O. c #C56F7A",
"+. c #C1C0C0",
"@. c #BBBFBE",
"#. c #CE4153",
"$. c #C4D4D1",
"%. c #F05B6E",
"&. c #A6888C",
"*. c #C83548",
"=. c #BECAC4",
"-. c #ECF7F6",
";. c #D76272",
":. c #CE989F",
">. c #C9717B",
",. c #E26071",
"<. c #869383",
"1. c #A19C92",
"2. c #D6858E",
"3. c #AC6E76",
"4. c #F1E7E8",
"5. c #E6E8E8",
"6. c #DA5A6B",
"7. c #667761",
"8. c #64725D",
"9. c #E9F9F1",
/* pixels */
"6 X o + % $   # 5 @ X * X * X o X @ 5 # # 5 @ X o X * X * X @ 5 #   $ % + o X 6 ",
"X @ + % 5 #   $ # 5 @ + @ + @ + @ 5 # u # # 5 @ + @ + @ + @ 5 # $   # 5 % + @ X ",
"% 5 # $ #       $ # $ % 5 % 5 % 5 % u W i u # $ % 5 % 5 % $ # $       # $ # 5 % ",
"                                @ 5 W C Q W u u                                 ",
"+ % 5 % $ #     # $ % 5 % 5 @ & i $ 2.f *.| d , & % 5 % 5 % $ #     # $ % 5 % + ",
"* X @ + % $   # 5 % + o X 6 + 9 Q H f ,.N f E 4.9 D * X o + % 5 #   $ % + @ X * ",
"> o X @ 5 #   $ % + o X 6 d % J ` ! K n ^ e ..*.( 9 7 6 X o + % $   # 5 @ X o > ",
"6 X o + % $   # 5 % D o d o.' f  .C @.3.&.$.] w f [ T d 6 O % 5 #   $ % + o X 6 ",
"X @ 5 % $ #   $ # u q i | ` ` K I { B X.} 3.{ g A ..#.C W   & # $   # $ % 5 @ X ",
"# $ # $ #     # % d j E f N ( p L  .%.z - X.' &.=.] s f 2.6 W @       # $ # $ # ",
"# $ # $ #   # 5 W R *...K 0 ~ B Y < z w w z < y B { g x f H Q d #     # $ # $ # ",
"X @ 5 % $ % 5 T [ f 1 ( $.L  .X.4 4 s J J ! : < %. .L F ] ! f J 5   # $ % 5 @ X ",
"6 X o + % & W Q ..K b ~ B Y < . 2 s / =.=./ #.} z < Y ' ~ M ,.! T , & % + o X 6 ",
"> o X @ 5 @ i Q ] $.&.6.X.4 . < V J <.1.1.<.| w - 2 = %.N / F J 4., % 5 @ X o > ",
"* X @ + % $ # + l O.y - . = . 4 3 k 8.~ ~ 7.L t 4 . . . < 3 c n     $ % + @ X * ",
"+ % 5 % $ #   5 ; S 2 z 2 = 2 = } [ L / / L >.N - = . . . : S P     # $ % 5 % + ",
"            # 5 ; r : 4 . . . y K C C ( ( C C K : 4 . 2 . y e # $               ",
"% 5 # $ #   # 5 ; r : 4 4 = = . = z z z z z z = 4 4 4 = 4 y e #       # $ # 5 % ",
"X @ + % 5 #   5 ; x : 3 3 3 3 2 4 : y y y 3 y 4 4 3 3 3 3 y A % $   # 5 % + @ X ",
"6 X o + % $ # $ ; S w H G G H 8 2 8 ;.G G ;.H N N H G G ' ! ) #     $ % + o X 6 ",
"> o X @ 5 #   5 ; r s g l a M 8 t [ m a 0 m U 1 V U l a 0 8 A # $   # 5 @ X o > ",
"* + @ 5 % $ # 5 ; S s g m l ^ 8 3 O.p v +.p :.V 1 R m b b 8 e       $ % 5 @ + * ",
"5 % $ # $     5 ; r s g a 0 M 8 3 O.p v +.p k V 1 U l 0 0 8 A # $     $ # $ % 5 ",
"              5 ; r s g m l ^ 8 3 >.a n F a k 1 1 R m b b 8 e #                 ",
"@ 5 % 5 # $ # 5 ; S s g a 0 M 8 3 E n F +.n k V 1 U a 0 0 8 e       $ # 5 % 5 @ ",
"X o + @ 5 #   5 ; r s g l l ^ 8 3 B p v @.p k V 1 R m a a 8 A # $   # 5 @ + o X ",
"6 X o + % $ # $ ; S ! | M M R 8 3 E I n v I U V 1 :.^ M g #.)       $ % + o X 6 ",
"> o X @ 5 #   5 ; x 3 1 1 1 1 } t E I F v I k 1 . 1 1 1 1 N e % $   # 5 @ X o > ",
"o + % 5 # $ # 5 ; r : - < < - - t B p v @.p k w - 4 < < - : )       $ # 5 % + o ",
"$ # $ # $     5 ; x : . 2 2 2 4 t B p v { n k w < 2 2 2 . : e # $     $ # $ # $ ",
"$ # $ # $     5 ; x : = . 2 . < t c -.b F -.Z w - 2 . 2 = : e # $     $ # $ # $ ",
"o + % 5 # $ # 5 ; r : = . 2 . - t c 9 5.b 9 Z w - 2 . 2 4 : e       $ # 5 % + o ",
"> o X @ 5 #   5 ; x : = = 2 . - t c 9 _ 0 9 Z w - 2 . 2 = : A % $   # 5 @ X o > ",
"6 X o + % $ # $ ; r : 4 . 2 . - t c 9 _ 0 9 Z w - 2 . 2 = y ) &     $ % + o X 6 ",
"X o + @ 5 #   5 ; x 2 = . 2 2 - t c 9 _ 0 9 Z w - 2 2 2 = y A % $   # 5 @ + o X ",
"@ 5 % 5 # $ # 5 ; r . = 4 2 = 4 t c 9 _ 0 9 Z s - . 2 . = : e       $ # 5 % 5 @ ",
"                % h j h j h j h o.j   % o 5 T o.h j h j h j h #                 ",
"5 % $ # $         q q i , i q i q i # $ $ # , q i q i q i q q #       $ # $ % 5 ",
"* + @ 5 % $   # $ @ D o O * O o $ @ $ # # $ % $ o O * O o D @ $ #   $ % 5 @ + * ",
"7 * X @ 5 #   $ % + o X * X * X o + % $ $ % + o X * X * X o + % $   # 5 @ X * 7 "
};
