/* XPM */
static char *_640786978443[] = {
/* columns rows colors chars-per-pixel */
"40 40 65 1 ",
"  c #060706",
". c #070B07",
"X c #0C0D0B",
"o c #0C120C",
"O c #131413",
"+ c #161A16",
"@ c #181718",
"# c #1C1C1C",
"$ c #1E211E",
"% c #20201F",
"& c #232323",
"* c #252925",
"= c #2C2C2C",
"- c #2F342F",
"; c #30302F",
": c #333433",
"> c #373936",
", c #3B3C3B",
"< c #403F3F",
"1 c #40423F",
"2 c #776125",
"3 c #444444",
"4 c #484747",
"5 c #474A47",
"6 c #4B4C4B",
"7 c #4E504E",
"8 c #514F50",
"9 c #535353",
"0 c #575A57",
"q c #5C5C5C",
"w c #766741",
"e c #7C6F49",
"r c #646464",
"t c #686667",
"y c #6B6B6B",
"u c #6F716F",
"i c #747574",
"p c #7B7B7B",
"a c #9F770A",
"s c #876D27",
"d c #857D65",
"f c #848384",
"g c #8C8C8B",
"h c #8F918F",
"j c #939393",
"k c #989797",
"l c #9C9C9C",
"z c #A09FA0",
"x c #A3A3A3",
"c c #A8A7A8",
"v c #ACABAB",
"b c #B3B3B3",
"n c #BBBBBB",
"m c #C4C4C4",
"M c #CCCCCC",
"N c #D3D3D3",
"B c #DBDBDB",
"V c #E2E2E2",
"C c #E5E6E8",
"Z c #ECECEC",
"A c #EEEFF0",
"S c #F7F7F7",
"D c #F7F9F7",
"F c #F7F8F9",
"G c #FDFDFD",
/* pixels */
"SSSSFSDSSSSSSSSSSSSSSSFGSSSSSSSSSSSSSSDS",
"FSFSSSSSSSSFSFSSSSSSSSMbNSSSGGFGGDSSSSDD",
"SDSSDDSSSFGFGSSSSSSSSl6y6zSNcvzfzZSSSSSD",
"SSSSDDSFSNjgvBSGDGGGZ8zmm9r6yr%r:kGSFSFS",
"SSSSSSSSB:9i9<qlldyyt*kBnjtnBn9mk8SSSFSF",
"SSSSSSSGi9SGFBk09igf8%rcjjkmmb8VM,BSSSSS",
"SSSSSSSA3xGGGGGFGGSiqgcgvMxlm6tSV,MSSGFS",
"SSSDSSSZ,nGGGGGGGGn0mNMjnmzlMbtfZ3mGSSSS",
"SSSSSSSS8ymGGGSBSGM9xnbvkhjnMNb8B3mGSFFS",
"SSSGFSDGgOnGGZvmlZGnyt6fmMj3djqpV<NSSSSS",
"SSSmBFSSyiGGGMNAfCGGGFjrBm8gzhvAS4zGSSSS",
"SSSflSGM>BGGGmbBBSGGGGB6rqtSGGGGGx6ZSSSS",
"SSSbrAGkqGGGSmgnSGGGGGGBlvSGGGGGGZ<mGGSS",
"SSGB3pf>0MSGNvrkmSGGGGGGGGGGGGGGAn:8fgMG",
"SSAh%1z>0gVFmx6jmDGGGGGGGGGFSGGGMg<9bbBS",
"SSA9X@n9gSGGmi@imFGGGGGGGGGj3BGGGAqpSGSS",
"DDFj+.>==bGGm,X>NGGGSVFGGGGtXmGGSj@<ucSS",
"SDDM*.:h:VGGSncvSGGBesdAGGGVnFGGGn=nMNSF",
"SSFA9o+k*3kGGGGGGGGM2awCGGGGGGGSf=3VGSSS",
"FSDDho.-r%tSGGGGGGGGVmCGGGGGGGGB3:rqxSSS",
"SSDGM&.,Zn39bAGGGGGGGGGGGGGGGZz,0NSBmSSS",
"SFSGA9o$nbck3<ivMCZSSSSAZVmzt>9vSSSGGSSG",
"DCmMNtoO6:tl8=@ @*,64666:&@ &=qxmBSSSSSS",
"Gn;::+o>@O%;6c<X@O>xvkbg@@@X0z=3q4vGSSSF",
"Gv;&&O.=*X*v4i@@#@#lmBnfO@&O&y9AGgrSSSSS",
"SZmbvt%oO:>jzXO%##@%9q8@@#@$X@mGGn,VSSSS",
"SDGGGb:oX5xvN@@#####@OO##@##O;AGGN:BSSSS",
"SSSSB0o.o$vNpX########%##&##OOzNb8pSSSSS",
"SSDc-.=6O=rq@O##############%X*rycASSSSS",
"SDDgo6MC3:VN%O###%###########X,CSGSSSSSS",
"DDDZnVDGjobnO#############%#%O&BSSGSSSGS",
"DDDDDDDGkXiz XXOXOO@@@@O@OXXXXOmGSSSSSSS",
"SSSSSSSGkX>f3zfu04,;&O*:,30ugl:mSSSSSSSS",
"SDSSSSSGjo$t7DGDGFSZm4BZSSGGGB>NGSSSSSSS",
"SSSDSSSGgoo03bGGGGGGB9SGGGGGGf0SSSSSSSSS",
"SSSSSSSGf .7l,lCGGGGv*NGGGFBf<mSSSSSSSGS",
"SSSSSGSGnukNSnq6quit,=3tiy96uMSSSSSSSSSS",
"SSSSSSSSSDGGSFSBnvxvMVmvxvmVSSSSGSSSGSSS",
"SSSSSSSSSSSSSSSDFGGGGSFGGGFFSSDDSSSSSSSS",
"SSSSSSSSSSSSSSSSSSSSSSSSFFDSSSDDSSSSSSSS"
};
