/* XPM */
static char *_640619294733[] = {
/* columns rows colors chars-per-pixel */
"40 40 136 2 ",
"   c white",
".  c #F9A7D1",
"X  c #F8F8F8",
"o  c #252525",
"O  c #FDFDFD",
"+  c #FAA8D2",
"@  c black",
"#  c #FEFEFE",
"$  c #FDFEFD",
"%  c #FCFBFB",
"&  c #2B2C2C",
"*  c #DEDFDF",
"=  c #8A8C8B",
"-  c #FFB6E4",
";  c #FFAFDB",
":  c #FF4FA6",
">  c #050303",
",  c #6A6A6A",
"<  c #F7A6D0",
"1  c #ECEEED",
"2  c gray98",
"3  c gray97",
"4  c #C9CACA",
"5  c gray12",
"6  c #FFB3DF",
"7  c #F4F4F4",
"8  c #606160",
"9  c #0B0A0B",
"0  c gray21",
"q  c #414543",
"w  c #555553",
"e  c #7E7E7E",
"r  c gray30",
"t  c #C0C0C0",
"y  c #C5C7C6",
"u  c #BABCBB",
"i  c #DADADA",
"p  c #A5A6A5",
"a  c #171416",
"s  c #3D3C3C",
"d  c #100C0E",
"f  c #5B5B5B",
"g  c #B4B4B4",
"h  c #818281",
"j  c #121312",
"k  c #FFACD7",
"l  c #F3A3CC",
"z  c #E9EBEA",
"x  c #737372",
"c  c gray94",
"v  c #C786A7",
"b  c #303231",
"n  c #9A9A9A",
"m  c #737776",
"M  c #9B9E9D",
"N  c #FF54AD",
"B  c #9FA0A0",
"V  c #D5D5D5",
"C  c gray67",
"Z  c #646464",
"A  c #FF4DA0",
"S  c #919291",
"D  c gray10",
"F  c #464545",
"G  c #270716",
"H  c gray90",
"J  c #FAF3F1",
"K  c #311622",
"L  c #C9357E",
"P  c #EE4394",
"I  c #E54190",
"U  c #F6499B",
"Y  c #979797",
"T  c #FFBBE8",
"R  c #60173B",
"E  c #D58DB1",
"W  c #050A08",
"Q  c #8E8E8E",
"!  c #868686",
"~  c #31091A",
"^  c #1C0811",
"/  c #D2D2D2",
"(  c #403F40",
")  c #351B28",
"_  c #8A1F51",
"`  c #630933",
"'  c #B7B6B6",
"]  c #DB3D89",
"[  c #FF5CB6",
"{  c #E2E2E2",
"}  c #4E2F3F",
"|  c #7B7C7B",
" . c #CECECE",
".. c #AB718E",
"X. c #684658",
"o. c #7A5467",
"O. c #ADB7B2",
"+. c #3A071F",
"@. c #929895",
"#. c #7E8B85",
"$. c #34242B",
"%. c #98275D",
"&. c #771141",
"*. c #510729",
"=. c #7E1346",
"-. c #B1B1B1",
";. c #73445D",
":. c #986780",
">. c #895971",
",. c #DF95BA",
"<. c #442735",
"1. c #D3DAD7",
"2. c #BDCAC4",
"3. c #2C2126",
"4. c #450723",
"5. c #7C1E4A",
"6. c #700739",
"7. c #675000",
"8. c #875500",
"9. c #A86F00",
"0. c #776A4C",
"q. c #7D735A",
"w. c #945D79",
"e. c #B27493",
"r. c #FFC2F2",
"t. c #FFC9FB",
"y. c #B17C97",
"u. c #A5748E",
"i. c #3D5047",
"p. c #30463C",
"a. c #9E2A65",
"s. c #BE276E",
"d. c #B0297A",
"f. c #613513",
"g. c #AE9000",
"h. c #F9F825",
/* pixels */
"                O 2 % % #           O   H m #.2                 #               ",
"              O           % O % % 2   1 3.&.` 0   z = @.S r | %   #             ",
"            O   z e m -.3             O.*.[ N &.p.$.6.=.@ , 9 =   %             ",
"          #   X a & f 5 9 8 4 p m Z , q R : P A *.] N [ &.2.u &   O             ",
"          %   = 5       4 w W 5 q 8 , & > ] A d.I : P A 4.y H D 3   #           ",
"          %   s Q   3 #     7       f R _ I %.7.f.] : *.i.  c 5 {   #           ",
"          #   & g   %   % %   %   m 6.: A : R g.7.L A L +.@.  o /   O           ",
"          O   0 p   %       # %   f s.[ : : I R a.: U : I K 3 0 4   O           ",
"          %   e @ B   %       O   4 ) =.=.5.U : U %.P : P K 1 s V   O           ",
"          %   g > 3   #         O   z M #.K U U ] j <.R ~ M   D H   #           ",
"          %   F S   2             O       $.L [ ` #.  2.z     r h   %           ",
"      O X   { j z   #               # X   p ^ 4.( 3       X   t 5   % 2 #       ",
"    #       C F   %                     $   1.O.#   % O # #     & i       #     ",
"  O   4 , m & s i 2     O % #             O       % % #     3 4 5 q x x *   #   ",
"  #   i B p & 0 , *   O       #             O % O       %   y Z o F C p z   #   ",
"    #       , =   % %   g r c   #   O % % #   O   i ( V   O #   f B       #     ",
"        t ! 5 j p   X   w @ y   % #         # %   n @ =   2 O = > 0 Q  .  #     ",
"        n = , 9 7   %   t Z 3   O   * x h 1   O   { f *   O   V @ ! h -.  O     ",
"              D B V % #       # %   w 9.8.e   % #         7 V | s       #       ",
"      # # c Y d @ Q   X % % #   O   4 0.q.*   O   # % % 2   Z @ o C 3 O         ",
"      #   , w  .r o 1     % % % O O         O O % % %     / 9 x t q =   O       ",
"        # X       f @ h c                             H Z @ e       3           ",
"            % X     i 0 @ w S u * 1 7 7 7 c 1 i -.= q @ r 1     X O             ",
"            #   / t S s G @ > ) > d a a a a d > ) @ > G F M t *   O             ",
"          %   n D ( @ ` : ^ v r.} _ I L L P ` X.t.:.~ N ~ W s D u   %           ",
"          %   b g   1.~ 5.$.; ; u.+.N N N A G v ; l a _ 3.c   h w   2           ",
"        #   c o i     x @ ..6 l ; X.+.%._ G >.6 l - o.@ Y     -.b               ",
"        O   y o   X    .> l k . + ; y.o.o.v 6 . < ; v > 1     3 a z   #         ",
"        #   X a C     M <.- < + + < 6 - - ; < + + + k G y     e &   #           ",
"          %   y o q 8 W :.6 < + + + < < < < + + + < - X.j 8 0 & *   O           ",
"            %   % ' Y > E ; < + + + + + + + + + + < 6 ..W p u     O             ",
"              % #   * ^ l < < < < < . . . . < < < l k E j O   O O               ",
"                %   B K T - - - 6 ; ; k k ; ; 6 - - T k d y   %                 ",
"                %   Y @ ) } ;.w.e.v E ,.,.E v ..>.;.} K @ u   %                 ",
"                %   ! r u | 8 q b o o 9 d 5 o b q 8 h u b C   %                 ",
"                %   n r           O   , =   $           & t   O                 ",
"                O   * j c   7 X % X   m n   X 2 X 7   4 j %   #               O ",
"                  %   , & 2           f !           H d S   %             O J J ",
"                  #     8 j 8 M ' ' Q @ d M ' g @.w 9 e   O           # J J %   ",
"                    #     / x ( & & s n = 0 & b F e *   #             X X       "
};
